<?xml version="1.0" standalone="yes"?>
<svg xmlns="http://www.w3.org/2000/svg" width="512" height="512">
<path style="fill:#ffce38; stroke:none;" d="M224 94L94 94C74.9638 94 50.1431 89.8224 32 96.1011C16.2032 101.568 3.71407 115.248 1.30015 132C0.493172 137.6 -2.06118 155.964 6.94599 154.833C13.3926 154.023 11.5311 137.155 12.9275 132C16.3494 119.368 26.5905 109.683 39 106.043C51.8422 102.276 68.6657 105 82 105L171 105C188.51 105 211.463 109.169 224 94z"/>
<path style="fill:#ff9d33; stroke:none;" d="M204 104L204 105L399 105L448 105L474 106.221L494 119C496.647 115.624 498.691 114.197 503 115C488.859 86.6675 448.959 94 423 94L293 94C271.566 94 249.355 92.303 228 94.0579C218.923 94.8037 213.62 103.769 204 104z"/>
<path style="fill:#ffce38; stroke:none;" d="M477 95L478 96L477 95z"/>
<path style="fill:#ff642d; stroke:none;" d="M475 106L476 107L475 106M501 112L502 113L501 112M493 119L493 120C504.512 132.316 501 155.542 501 171L501 299C516.823 293 511 268.063 511 254L511 171C511 150.821 512.649 132.635 504 114C498.824 113.719 496.37 114.982 493 119M502 113L503 114L502 113z"/>
<path style="fill:#ff3827; stroke:none;" d="M505 117L506 118L505 117z"/>
<path style="fill:#ff9d33; stroke:none;" d="M494 120L495 121L494 120z"/>
<path style="fill:#ff3827; stroke:none;" d="M496 124L497 125L496 124z"/>
<path style="fill:#ff9d33; stroke:none;" d="M508 124L509 125L508 124M414 171L414 170C403.708 170 389.38 172.543 380.004 167.558C370.87 162.701 369.526 150.872 378.043 144.653C384.172 140.177 392.846 141 400 141C418.184 141 441.188 137.152 458 145L456 142L466 136L466 134C453.787 127.601 441.474 129 428 129C412.488 129 396.457 127.825 381 129.093C373.799 129.684 367.072 134.045 363.108 140.004C353.299 154.748 360.492 178.42 379 181.671C393.851 184.28 401.775 177.806 414 171z"/>
<path style="fill:#ff642d; stroke:none;" d="M466 135L456 142C457.82 145.269 460.321 148.365 461.581 151.907C464.086 158.949 458.465 166.188 452 168.576C440.289 172.9 426.874 167.481 415 170.419C408.484 172.031 402.809 177.766 397 181L397 182C414.99 182 440.98 186.782 458 180.891C478.617 173.755 479.094 148.798 466 135z"/>
<path style="fill:#ff9d33; stroke:none;" d="M467 136L467 138L469 138L467 136z"/>
<path style="fill:#fff; stroke:none;" d="M386 141.44C372.06 143.685 365.479 162.476 381.001 168.437C388.057 171.147 396.587 170 404 170C418.582 170 436.903 172.96 451 169.072C463.698 165.569 466.415 147.432 452.999 142.613C445.262 139.834 436.072 141 428 141C414.388 141 399.446 139.274 386 141.44z"/>
<path style="fill:#ff9d33; stroke:none;" d="M471 141L472 142L471 141z"/>
<path style="fill:#ff642d; stroke:none;" d="M455 143L456 144L455 143z"/>
<path style="fill:#ff9d33; stroke:none;" d="M474 148L475 149L474 148M461 150L462 151L461 150M462 154L463 155L462 154M462 156L463 157L462 156M461 160L462 161L461 160z"/>
<path style="fill:#ffce38; stroke:none;" d="M2.60339 167.028C-1.62014 170.362 0.092926 190.499 8.6821 184.968C14.1312 181.458 11.6008 159.926 2.60339 167.028z"/>
<path style="fill:#ff9d33; stroke:none;" d="M453 168L454 169L453 168M469 172L470 173L469 172M465 176L466 177L465 176M57 194L58 195L57 194z"/>
<path style="fill:#ffce38; stroke:none;" d="M40 217L53 211C53 206.87 59.4475 205.28 63 205L63 204L61 203L75 195C58.315 187.999 41.3927 200.238 40 217z"/>
<path style="fill:#ff9d33; stroke:none;" d="M61 203L61 204C81.0241 209.796 105.191 199.28 125 205.333C138.883 209.576 139.568 247.163 130 255.833C122.767 262.388 105.21 259 96 259C85.6026 259 67.3306 262.499 58 257.833C45.2368 251.452 48.485 220.935 52 210C48.384 211.711 43.2479 214.019 41.0278 217.518C38.852 220.947 40 227.111 40 231C40 242.952 37.5883 256.998 48.3256 265.3C55.3734 270.75 63.6096 270 72 270L113 270C120.172 270 127.548 270.804 133.996 267.045C138.66 264.326 142.212 260.103 144.031 255C145.788 250.069 145 244.155 145 239C145 225.909 148.442 208.076 136.826 198.789C125.683 189.88 104.425 194 91 194C85.957 194 79.8424 193.088 75 194.702C69.9569 196.383 65.6239 200.426 61 203z"/>
<path style="fill:#ffce38; stroke:none;" d="M1 244C13.954 236.787 11 226.325 11 213C11 209.27 12.4238 201.697 9.97222 198.603C1.77369 188.258 1 209.931 1 213L1 225L1 244z"/>
<path style="fill:#ff9d33; stroke:none;" d="M47 199L48 200L47 199M45 201L46 202L45 201z"/>
<path style="fill:#ffce38; stroke:none;" d="M139 201L140 202L139 201z"/>
<path style="fill:#ff9d33; stroke:none;" d="M43 204L44 205L43 204z"/>
<path style="fill:#fff; stroke:none;" d="M59.0039 205.703C46.0996 210.127 45.6208 248.378 55.2137 256.196C60.065 260.15 67.1702 259 73 259C88.4476 259 111.393 263.304 125.996 258.297C138.9 253.873 139.379 215.622 129.786 207.804C124.935 203.85 117.83 205 112 205C96.5524 205 73.607 200.696 59.0039 205.703z"/>
<path style="fill:#ff9d33; stroke:none;" d="M56 206L57 207L56 206z"/>
<path style="fill:#ff642d; stroke:none;" d="M55 207L56 208L55 207z"/>
<path style="fill:#ffce38; stroke:none;" d="M129 207L130 208L129 207z"/>
<path style="fill:#ff9d33; stroke:none;" d="M52 209L53 210L52 209M40 210L41 211L40 210z"/>
<path style="fill:#ffce38; stroke:none;" d="M144 210L145 211L144 210M50.6667 212.333L51.3333 212.667L50.6667 212.333z"/>
<path style="fill:#ff9d33; stroke:none;" d="M40 214L41 215L40 214z"/>
<path style="fill:#ffce38; stroke:none;" d="M50 214L51 215L50 214M50 217L51 218L50 217M134 217L135 218L134 217z"/>
<path style="fill:#ff9d33; stroke:none;" d="M59 408L59 407C40.7267 407 24.0384 404.346 14.9954 386C8.14447 372.102 11 353.003 11 338L11 238C-5.06547 244.092 1 270.69 1 285L1 351C1 362.649 -0.781099 375.844 3.07948 387C7.97506 401.146 25.7925 421.018 43 417.542C48.6797 416.394 54.2751 411.188 59 408z"/>
<path style="fill:#ffce38; stroke:none;" d="M50 246L51 247L50 246M134 246L135 247L134 246z"/>
<path style="fill:#ff642d; stroke:none;" d="M55 256L56 257L55 256z"/>
<path style="fill:#ffce38; stroke:none;" d="M129 256L130 257L129 256M46 263L47 264L46 263z"/>
<path style="fill:#ff642d; stroke:none;" d="M137 264L138 265L137 264z"/>
<path style="fill:#ff3827; stroke:none;" d="M510 293C498.277 302.018 501 312.021 501 326C501 349.519 507.182 383.07 485.999 399.471C472.404 409.997 454.098 407 438 407L371 407C361.672 407 348.888 404.739 340 407.702C334.957 409.383 330.624 413.426 326 416L326 417C365.618 422.007 408.045 418 448 418C466.994 418 485.95 418.657 499.7 402.985C515.837 384.592 511 357.648 511 335C511 323.056 514.607 303.98 510 293z"/>
<path style="fill:#ff642d; stroke:none;" d="M58 337L59 338L58 337z"/>
<path style="fill:#ff9d33; stroke:none;" d="M59.3179 338.028C55.0993 340.85 57.8619 346.176 62.0193 346.852C81.5879 350.033 104.153 347 124 347C128.818 347 140.665 349.145 144.254 345.397C151.857 337.456 135.646 337 132 337L80 337C74.6451 337 63.9037 334.96 59.3179 338.028M160 341L161 341L164 338L160 341z"/>
<path style="fill:#ff642d; stroke:none;" d="M164.11 337.742C160.062 339.492 159.468 345.334 164.133 346.682C169.971 348.37 177.943 347 184 347L227 347C231.907 347 243.688 349.142 247.396 345.397C255.772 336.934 236.445 337 233 337L185 337C178.93 337 169.757 335.3 164.11 337.742M265.318 338.028C261.099 340.85 263.862 346.176 268.019 346.852C287.588 350.033 310.153 347 330 347C334.907 347 346.688 349.142 350.396 345.397C358.18 337.532 341.564 337 338 337L286 337C280.645 337 269.904 334.96 265.318 338.028M445 338C439.293 335.605 431.154 337 425 337L384 337C379.352 337 366.457 334.66 366.457 342C366.457 349.61 381.169 347 386 347C399.594 347 416.807 349.845 430 346.581C435.457 345.231 440.144 340.704 445 338z"/>
<path style="fill:#ff3827; stroke:none;" d="M431 346C434.972 347.667 451.009 349.144 453.972 345.397C460.435 337.225 446.448 336.618 442 339.108C438.223 341.222 434.787 343.892 431 346z"/>
<path style="fill:#ff642d; stroke:none;" d="M453 337L454 338L453 337z"/>
<path style="fill:#ffce38; stroke:none;" d="M57 338L58 339L57 338z"/>
<path style="fill:#ff3827; stroke:none;" d="M366 339L367 340L366 339z"/>
<path style="fill:#ff9d33; stroke:none;" d="M160.333 343.667L160.667 344.333L160.333 343.667z"/>
<path style="fill:#ff3827; stroke:none;" d="M366 344L367 345L366 344z"/>
<path style="fill:#ffce38; stroke:none;" d="M57 345L58 346L57 345z"/>
<path style="fill:#ff642d; stroke:none;" d="M58 346L59 347L58 346M11 371L12 372L11 371M499 379L500 380L499 379M14 385L15 386L14 385z"/>
<path style="fill:#ffce38; stroke:none;" d="M15 387L16 388L15 387M4 390L5 391L4 390z"/>
<path style="fill:#ff642d; stroke:none;" d="M506 392L507 393L506 392z"/>
<path style="fill:#ffce38; stroke:none;" d="M6 394L7 395L6 394M10 400L11 401L10 400z"/>
<path style="fill:#ff642d; stroke:none;" d="M44 417L44 418L139 418L330 418L330 417L326 417L326 416L340 408L317 407L266 407L123 407L81 407L60 407.51L44 417M480 415L481 416L480 415z"/>
<path style="fill:#ffce38; stroke:none;" d="M34 416L35 417L34 416z"/>
<path style="fill:#ff9d33; stroke:none;" d="M47 417L47 418L50 418L47 417z"/>
</svg>
