<?xml version="1.0" standalone="yes"?>
<svg xmlns="http://www.w3.org/2000/svg" width="512" height="512">
<path style="fill:#f7a62c; stroke:none;" d="M64 16L64 88C58.2492 88 48.2779 86.0916 43.2284 89.179C37.9371 92.4142 40.0807 100.151 43.2284 104C52.261 115.045 63.7286 124.652 74.1698 134.325C79.842 139.579 87.5356 151.89 96 151.89C103.814 151.89 111.613 140.705 117 135.83C127.805 126.054 139.546 115.281 148.772 104C151.769 100.335 153.88 93.412 149.566 89.7423C144.989 85.8485 133.674 88 128 88L128 16L112 16L112 82C112 92.501 109.373 103.877 123 104C114.699 112.301 101.985 121.311 97 132L69 104C82.6269 103.877 80 92.501 80 82L80 16L64 16M200 16L200 112C193.077 112 174.573 108.755 169.742 114.434C162.445 123.012 175.981 132.044 181 137.004C189.467 145.37 200.751 162.249 212 166.397C218.193 168.68 227.441 167 234 167L197 128C201.84 128 210.743 129.698 214.258 125.566C219.073 119.906 216 103.13 216 96L216 16L200 16M296 16L296 96C296 103.13 292.927 119.906 297.742 125.566C301.257 129.698 310.16 128 315 128L278 167C284.559 167 293.807 168.68 300 166.397C311.201 162.267 321.027 146.22 330 138.424C335.462 133.679 349.587 123.051 342.258 114.434C337.427 108.755 318.923 112 312 112L312 16L296 16M384 16L384 88C378.249 88 368.278 86.0916 363.228 89.179C357.937 92.4142 360.081 100.151 363.228 104C372.261 115.045 383.729 124.652 394.17 134.325C399.842 139.579 407.536 151.89 416 151.89C423.814 151.89 431.613 140.705 437 135.83C447.805 126.054 459.546 115.281 468.772 104C471.769 100.335 473.88 93.412 469.566 89.7423C464.989 85.8486 453.674 88 448 88L448 16L432 16L432 82C432 92.501 429.373 103.877 443 104C434.699 112.301 421.985 121.311 417 132L389 104C402.627 103.877 400 92.5009 400 82L400 16L384 16z"/>
<path style="fill:#ef723d; stroke:none;" d="M71 131L72 132L71 131M96 131L97 132L96 131M175 131L176 132L175 131M312 131L313 132L312 131M391 131L392 132L391 131M416 131L417 132L416 131M176 132L177 133L176 132M311 132L312 133L311 132M73 133L74 134L73 133M177 133L178 134L177 133M310 133L311 134L310 133M393 133L394 134L393 133M74 134L75 135L74 134M178 134L179 135L178 134M309 134L310 135L309 134M394 134L395 135L394 134M75 135L76 136L75 135M179 135L180 136L179 135M308 135L309 136L308 135M395 135L396 136L395 135M76 136L77 137L76 136M180 136L181 137L180 136M307 136L308 137L307 136M396 136L397 137L396 136M77 137L78 138L77 137M181 137L182 138L181 137M306 137L307 138L306 137M397 137L398 138L397 137M78 138L79 139L78 138M113 138L114 139L113 138M182 138L183 139L182 138M206 138L207 139L206 138M305 138L306 139L305 138M329 138L330 139L329 138M398 138L399 139L398 138M433 138L434 139L433 138M79 139L80 140L79 139M112 139L113 140L112 139M183 139L184 140L183 139M207 139L208 140L207 139M304 139L305 140L304 139M328 139L329 140L328 139M399 139L400 140L399 139M432 139L433 140L432 139M80 140L81 141L80 140M111 140L112 141L111 140M184 140L185 141L184 140M208 140L209 141L208 140M303 140L304 141L303 140M327 140L328 141L327 140M400 140L401 141L400 140M431 140L432 141L431 140M81 141L82 142L81 141M110 141L111 142L110 141M185 141L186 142L185 141M209 141L210 142L209 141M302 141L303 142L302 141M326 141L327 142L326 141M401 141L402 142L401 141M430 141L431 142L430 141M82 142L83 143L82 142M109 142L110 143L109 142M186 142L187 143L186 142M210 142L211 143L210 142M301 142L302 143L301 142M325 142L326 143L325 142M402 142L403 143L402 142M429 142L430 143L429 142M83 143L84 144L83 143M108 143L109 144L108 143M187 143L188 144L187 143M211 143L212 144L211 143M300 143L301 144L300 143M324 143L325 144L324 143M403 143L404 144L403 143M428 143L429 144L428 143M84 144L85 145L84 144M107 144L108 145L107 144M188 144L189 145L188 144M212 144L213 145L212 144M299 144L300 145L299 144M323 144L324 145L323 144M404 144L405 145L404 144M427 144L428 145L427 144M85 145L86 146L85 145M106 145L107 146L106 145M189 145L190 146L189 145M213 145L214 146L213 145M298 145L299 146L298 145M322 145L323 146L322 145M405 145L406 146L405 145M426 145L427 146L426 145M86 146L87 147L86 146M105 146L106 147L105 146M190 146L191 147L190 146M214 146L215 147L214 146M297 146L298 147L297 146M321 146L322 147L321 146M406 146L407 147L406 146M425 146L426 147L425 146M87 147L88 148L87 147M104 147L105 148L104 147M191 147L192 148L191 147M215 147L216 148L215 147M296 147L297 148L296 147M320 147L321 148L320 147M407 147L408 148L407 147M424 147L425 148L424 147M88 148L89 149L88 148M103 148L104 149L103 148M192 148L193 149L192 148M216 148L217 149L216 148M295 148L296 149L295 148M319 148L320 149L319 148M408 148L409 149L408 148M423 148L424 149L423 148M193 149L194 150L193 149M217 149L218 150L217 149M294 149L295 150L294 149M318 149L319 150L318 149M90 150L91 151L90 150M101 150L102 151L101 150M194 150L195 151L194 150M218 150L219 151L218 150M293 150L294 151L293 150M317 150L318 151L317 150M410 150L411 151L410 150M421 150L422 151L421 150M195 151L196 152L195 151M219 151L220 152L219 151M292 151L293 152L292 151M316 151L317 152L316 151M196 152L197 153L196 152M220 152L221 153L220 152M291 152L292 153L291 152M315 152L316 153L315 152M197 153L198 154L197 153M221 153L222 154L221 153M290 153L291 154L290 153M314 153L315 154L314 153M198 154L199 155L198 154M222 154L223 155L222 154M289 154L290 155L289 154M313 154L314 155L313 154M199 155L200 156L199 155M223 155L224 156L223 155M288 155L289 156L288 155M312 155L313 156L312 155M200 156L201 157L200 156M224 156L225 157L224 156M287 156L288 157L287 156M311 156L312 157L311 156M201 157L202 158L201 157M225 157L226 158L225 157M286 157L287 158L286 157M310 157L311 158L310 157M202 158L203 159L202 158M226 158L227 159L226 158M285 158L286 159L285 158M309 158L310 159L309 158M203 159L204 160L203 159M227 159L228 160L227 159M284 159L285 160L284 159M308 159L309 160L308 159M204 160L205 161L204 160M228 160L229 161L228 160M283 160L284 161L283 160M307 160L308 161L307 160M205 161L206 162L205 161M229 161L230 162L229 161M282 161L283 162L282 161M306 161L307 162L306 161M206 162L207 163L206 162M230 162L231 163L230 162M281 162L282 163L281 162M305 162L306 163L305 162M207 163L208 164L207 163M231 163L232 164L231 163M280 163L281 164L280 163M304 163L305 164L304 163M208 164L209 165L208 164M232 164L233 165L232 164M279 164L280 165L279 164M303 164L304 165L303 164M209 165L210 166L209 165M233 165L234 166L233 165M278 165L279 166L278 165M302 165L303 166L302 165M210 166L211 167L210 166M211 167C219.08 178.471 231.081 188.085 241 198C245.204 202.202 249.51 207.912 256 207.912C262.49 207.912 266.797 202.202 271 198C280.919 188.085 292.92 178.471 301 167L276 167.773L256 184.944L236 167.773L211 167M301 166L302 167L301 166M25 320C10.3558 320.804 16 350.221 16 361L192 361L192 336L320 336L320 361L496 361C496 350.356 501.524 321.096 487 320C489.44 311.744 489.192 298.507 487.671 290C487.064 286.607 484.397 283.433 484.397 280C484.397 276.567 487.064 273.393 487.671 270C489.645 258.961 490.184 240.894 482.671 232.015C474.579 222.454 463.297 224 452 224L381 224C370.533 224 359.271 222.242 351.043 230.105C341.728 239.007 342.182 257.99 344.329 270C344.936 273.393 347.603 276.567 347.603 280C347.603 283.433 344.936 286.607 344.329 290C342.808 298.507 342.56 311.744 345 320L327 320C329.44 311.744 329.192 298.507 327.671 290C327.064 286.607 324.397 283.433 324.397 280C324.397 276.567 327.064 273.393 327.671 270C329.645 258.961 330.184 240.894 322.671 232.015C314.579 222.454 303.297 224 292 224L221 224C210.533 224 199.271 222.242 191.043 230.105C181.728 239.007 182.182 257.99 184.329 270C184.936 273.393 187.603 276.567 187.603 280C187.603 283.433 184.936 286.607 184.329 290C182.808 298.507 182.56 311.744 185 320L167 320C169.44 311.744 169.192 298.507 167.671 290C167.064 286.607 164.397 283.433 164.397 280C164.397 276.567 167.064 273.393 167.671 270C169.645 258.961 170.184 240.894 162.671 232.015C154.579 222.454 143.297 224 132 224L61 224C50.5334 224 39.2708 222.242 31.0432 230.105C21.7276 239.007 22.1818 257.99 24.3295 270C24.9363 273.393 27.6034 276.567 27.6034 280C27.6034 283.433 24.9363 286.607 24.3295 290C22.8083 298.507 22.5597 311.744 25 320z"/>
<path style="fill:#eb4f3b; stroke:none;" d="M164 234L165 235L164 234M324 234L325 235L324 234M484 234L485 235L484 234z"/>
<path style="fill:#fff; stroke:none;" d="M136 240L136 256L120 256L120 240L104 240L104 256L88 256L88 240L72 240L72 256L56 256L56 240C51.5313 240.012 45.9548 239.729 42.7029 243.419C37.4857 249.339 38.0966 267.538 46.044 270.852C53.1204 273.802 63.4593 272 71 272L124 272C130.921 272 142.961 274.25 148.581 269.297C153.956 264.56 153.956 247.44 148.581 242.703C145.212 239.734 140.183 240.012 136 240M296 240L296 256L280 256L280 240L264 240L264 256L248 256L248 240L232 240L232 256L216 256L216 240C211.817 240.012 206.788 239.734 203.419 242.703C198.044 247.44 198.044 264.56 203.419 269.297C209.039 274.25 221.079 272 228 272L281 272C288.541 272 298.88 273.802 305.956 270.852C313.903 267.538 314.514 249.339 309.297 243.419C306.045 239.729 300.469 240.012 296 240M456 240L456 256L440 256L440 240L424 240L424 256L408 256L408 240L392 240L392 256L376 256L376 240C371.531 240.012 365.955 239.729 362.703 243.419C357.486 249.339 358.097 267.538 366.044 270.852C373.12 273.802 383.459 272 391 272L444 272C450.921 272 462.961 274.25 468.581 269.297C473.956 264.56 473.956 247.44 468.581 242.703C465.212 239.734 460.183 240.012 456 240z"/>
<path style="fill:#eb4f3b; stroke:none;" d="M147 241L148 242L147 241M307 241L308 242L307 241M467 241L468 242L467 241M150 244L151 245L150 244M310 244L311 245L310 244M470 244L471 245L470 244M41 267L42 268L41 267M150 267L151 268L150 267M201 267L202 268L201 267M310 267L311 268L310 267M361 267L362 268L361 267M470 267L471 268L470 267M44 270L45 271L44 270M147 270L148 271L147 270M204 270L205 271L204 270M307 270L308 271L307 270M364 270L365 271L364 270M467 270L468 271L467 270z"/>
<path style="fill:#ff0101; stroke:none;" d="M27 277L28 278L27 277M164 277L165 278L164 277M187 277L188 278L187 277M324 277L325 278L324 277M347 277L348 278L347 277M484 277L485 278L484 277M27 282L28 283L27 282M164 282L165 283L164 282M187 282L188 283L187 282M324 282L325 283L324 282M347 282L348 283L347 282M484 282L485 283L484 282z"/>
<path style="fill:#fff; stroke:none;" d="M136 288L136 304L120 304L120 288L104 288L104 304L88 304L88 288L72 288L72 304L56 304L56 288C51.8168 288.012 46.7879 287.734 43.419 290.703C38.0437 295.44 38.0437 312.56 43.419 317.297C49.0392 322.25 61.079 320 68 320L121 320C128.541 320 138.88 321.802 145.956 318.852C153.903 315.538 154.514 297.339 149.297 291.419C146.045 287.729 140.469 288.012 136 288M296 288L296 304L280 304L280 288L264 288L264 304L248 304L248 288L232 288L232 304L216 304L216 288C211.817 288.012 206.788 287.734 203.419 290.703C198.044 295.44 198.044 312.56 203.419 317.297C209.039 322.25 221.079 320 228 320L281 320C288.541 320 298.88 321.802 305.956 318.852C313.903 315.538 314.514 297.339 309.297 291.419C306.045 287.729 300.469 288.012 296 288M456 288L456 304L440 304L440 288L424 288L424 304L408 304L408 288L392 288L392 304L376 304L376 288C371.817 288.012 366.788 287.734 363.419 290.703C358.044 295.44 358.044 312.56 363.419 317.297C369.039 322.25 381.079 320 388 320L441 320C448.541 320 458.88 321.802 465.956 318.852C473.903 315.538 474.514 297.339 469.297 291.419C466.045 287.729 460.469 288.012 456 288z"/>
<path style="fill:#eb4f3b; stroke:none;" d="M147 289L148 290L147 289M307 289L308 290L307 289M467 289L468 290L467 289M150 292L151 293L150 292M310 292L311 293L310 292M470 292L471 293L470 292M41 315L42 316L41 315M150 315L151 316L150 315M201 315L202 316L201 315M310 315L311 316L310 315M361 315L362 316L361 315M470 315L471 316L470 315M44 318L45 319L44 318M147 318L148 319L147 318M204 318L205 319L204 318M307 318L308 319L307 318M364 318L365 319L364 318M467 318L468 319L467 318M493 321L494 322L493 321M494 322L495 323L494 322z"/>
<path style="fill:#fff; stroke:none;" d="M32 336L32 352L176 352L176 336L32 336M192 336L192 480L320 480L320 336L192 336M336 336L336 352L480 352L480 336L336 336z"/>
<path style="fill:#ef723d; stroke:none;" d="M248 360L248 361L264 361L248 360z"/>
<path style="fill:#eb4f3b; stroke:none;" d="M16 361L16 460C16 467.493 12.3469 489.08 18.4336 494.258C23.8263 498.845 39.237 496 46 496L123 496L398 496L468 496C474.393 496 488.444 498.615 493.566 494.258C499.653 489.08 496 467.493 496 460L496 361L320 361L320 480L192 480L192 361L16 361M248 361L248 368C222.844 368.522 213.761 403.961 238 414.467C246.157 418.002 266.534 411.247 270.214 422.044C272.046 427.422 266.488 430.859 262 431.671C254.113 433.097 243.976 432.544 241 424L224 424C224.119 438.157 233.87 447.881 248 448L248 456L264 456L264 448C289.223 447.788 298.1 411.978 274 401.533C265.695 397.934 245.674 404.797 241.762 393.956C239.771 388.441 245.378 385.051 250 384.305C257.924 383.026 267.995 383.373 271 392L288 392C287.881 377.862 278.076 368.292 264 368L264 361L248 361z"/>
<path style="fill:#fff; stroke:none;" d="M32 368L32 384L176 384L176 368L32 368z"/>
<path style="fill:#ef723d; stroke:none;" d="M241 368L242 369L241 368M270 368L271 369L270 368z"/>
<path style="fill:#fff; stroke:none;" d="M336 368L336 384L480 384L480 368L336 368z"/>
<path style="fill:#ef723d; stroke:none;" d="M234 371L235 372L234 371M277 371L278 372L277 371M284 378L285 379L284 378M244 385L245 386L244 385M241 388L242 389L241 388z"/>
<path style="fill:#fff; stroke:none;" d="M32 400L32 416L176 416L176 400L32 400M336 400L336 416L480 416L480 400L336 400z"/>
<path style="fill:#ef723d; stroke:none;" d="M277 403L278 404L277 403M227 405L228 406L227 405M284 410L285 411L284 410M234 412L235 413L234 412z"/>
<path style="fill:#fff; stroke:none;" d="M32 432L32 448L176 448L176 432L32 432M336 432L336 448L480 448L480 432L336 432z"/>
<path style="fill:#ef723d; stroke:none;" d="M227 437L228 438L227 437M284 437L285 438L284 437z"/>
<path style="fill:#fff; stroke:none;" d="M32 464L32 480L176 480L176 464L32 464M336 464L336 480L480 480L480 464L336 464z"/>
</svg>
