<svg xmlns="http://www.w3.org/2000/svg" xmlns:xlink="http://www.w3.org/1999/xlink" width="333.272" height="335.781" viewBox="0 0 333.272 335.781">
  <defs>
    <linearGradient id="linear-gradient" x1="0.127" y1="0.847" x2="0.889" y2="0.178" gradientUnits="objectBoundingBox">
      <stop offset="0" stop-color="#727272"/>
      <stop offset="0.299" stop-color="#c8c8c8"/>
      <stop offset="0.577" stop-color="#8e8e8d"/>
      <stop offset="0.827" stop-color="#efefef"/>
      <stop offset="0.996" stop-color="#777"/>
    </linearGradient>
    <linearGradient id="linear-gradient-2" x1="0.111" y1="0.825" x2="0.877" y2="0.15" gradientUnits="objectBoundingBox">
      <stop offset="0" stop-color="#be8e0c"/>
      <stop offset="0.308" stop-color="#f9cd15"/>
      <stop offset="0.383" stop-color="#fbd11f"/>
      <stop offset="0.515" stop-color="#fed62a"/>
      <stop offset="0.656" stop-color="#ffd72e"/>
      <stop offset="1" stop-color="#b58704"/>
    </linearGradient>
  </defs>
  <g id="LOGO" transform="translate(-266.4 -93.139)">
    <path id="Path_47" data-name="Path 47" d="M599.37,252.09c-6.81-117.45-114.04-150.81-114.04-150.81V138.9c94.98,43.4,80.68,131.23,80.68,131.23C547.97,402.9,427.8,394.39,427.8,394.39V244.43H346.44c17.36-72,81.36-70.13,81.36-70.13V138.9c-37.11-1.53-115.83,40-115.83,124.26,0,91.74,83.83,112.85,83.83,112.85l-.68,49.36a.06.06,0,0,1,.04.01.058.058,0,0,1-.04-.01C496.31,446.73,606.18,369.54,599.37,252.09ZM345.75,276.26h50.38v65.7C396.14,341.97,350.18,326.31,345.75,276.26ZM396,425.52c-.16-.03-.3-.05-.41-.07C395.73,425.47,395.87,425.5,396,425.52Zm-.43-.07c-.08-.01-.15-.03-.21-.04A1.552,1.552,0,0,1,395.57,425.45Zm9.72,1.62c.13.02.26.04.38.06C405.55,427.11,405.42,427.09,405.29,427.07Zm-8.31-1.39c.26.04.51.09.76.13C397.47,425.76,397.21,425.72,396.98,425.68Zm2.56.43.36.06Q399.7,426.14,399.54,426.11Zm1.73.29c.26.04.51.09.76.13C401.78,426.48,401.53,426.44,401.27,426.4Zm2.4.4c.35.06.67.11.97.16C404.33,426.91,404.01,426.85,403.67,426.8Zm2.33.39c.2.03.37.06.52.09C406.37,427.25,406.19,427.22,406,427.19Zm.71.11c.09.02.17.03.24.04C406.88,427.33,406.8,427.32,406.71,427.3Z" fill="url(#linear-gradient)"/>
    <path id="Path_48" data-name="Path 48" d="M472.37,146.69l1.59-49.34c-.06-.01-.11-.02-.16-.03l.16.03C373.18,74.12,261.9,149.27,266.54,266.82S377.78,419.71,377.78,419.71l.7-37.61c-94.16-45.15-78.24-132.7-78.24-132.7,20.49-132.41,140.49-121.68,140.49-121.68l-2.77,149.93,81.35,1.5c-18.69,71.67-82.64,68.61-82.64,68.61l-.65,35.4c37.07,2.22,116.55-37.85,118.11-122.09C555.8,169.34,472.37,146.69,472.37,146.69Zm.79-49.49c.15.03.27.05.38.07C473.42,97.24,473.29,97.22,473.16,97.2Zm-1-.19c-.47-.09-.92-.17-1.36-.25C471.29,96.85,471.75,96.94,472.16,97.01Zm-4.95-.92c-1.27-.24-2.27-.42-3.05-.57C465.04,95.69,466.11,95.89,467.21,96.09Zm-3.58-.66c-.31-.06-.58-.11-.8-.15C463.06,95.32,463.33,95.37,463.63,95.43Zm-1.12-.21c-.14-.03-.26-.05-.35-.06A2.858,2.858,0,0,1,462.51,95.22Zm-.43-.08a.248.248,0,0,0-.08-.01A.22.22,0,0,1,462.08,95.14Zm8.11,151.27,1.21-65.69s45.66,16.51,49.16,66.62Z" fill="url(#linear-gradient-2)"/>
  </g>
</svg>
