<?xml version="1.0" standalone="yes"?>
<svg xmlns="http://www.w3.org/2000/svg" width="512" height="512">
<path style="fill:#fdc212; stroke:none;" d="M81 77L99 76C89.7709 43.171 117.636 32 145 32L355 32C347.844 42.0705 344 51.5643 344 64C344 67.373 343.199 72.7461 346.434 74.9722C350.243 77.5941 358.539 76 363 76L363 75C352.147 60.5984 369.64 38.6028 383 34.1049C410.872 24.7213 424 53.6341 424 76L440 76C440 52.4872 436.201 28.8545 411 19.0687C390.48 11.1007 361.778 16 340 16L188 16L139 16C128.797 16 118.55 15.0378 109 19.3125C93.9569 26.0457 81.9759 40.2262 80.1736 57C79.4434 63.7963 81.316 70.338 81 77z"/>
<path style="fill:#f69b32; stroke:none;" d="M421 25L422 26L421 25M97 26L98 27L97 26z"/>
<path style="fill:#fff; stroke:none;" d="M355 96C341.633 71.99 341.666 56.0412 355 32L153 32C127.186 32 93.3294 33.6451 97.1736 69C100.485 99.4515 135.914 96 158 96L355 96z"/>
<path style="fill:#f69b32; stroke:none;" d="M90 33L91 34L90 33M353 34L354 35L353 34M434 40L435 41L434 40M435 42L436 43L435 42M344 54L345 55L344 54M423.333 62.6667L423.667 63.3333L423.333 62.6667M96 63L96 66L97 66L96 63M360.333 64.6667L360.667 65.3333L360.333 64.6667M80 71L81 72L80 71M344 73L345 74L344 73M81 74L82 75L81 74M361 74L362 75L361 74M345 75L355 96L207 96C182.181 96 156.756 97.6075 132 95.9105C123.314 95.3151 114.811 93.4263 108.015 87.6713C104.44 84.6447 101.942 78.4916 97.6744 76.6034C93.4235 74.7228 86.5876 76 82 76C83.681 88.4226 92.3202 99.3947 103 105.652C107.235 108.134 117.331 109.576 119.397 114.225C123.245 122.884 120 139.531 120 149L120 232L136 232L136 112L330 112L379 112C384.062 112 393.437 113.771 397.566 110.258C401.213 107.156 400.693 99.7475 396.772 97.1396C391.763 93.8089 384.508 94.9436 379 92.1898C371.664 88.5218 368.84 81.06 362.482 77.0278C358.105 74.2512 350.106 76.2157 345 75M424 76L424 233L440 233L440 76L424 76z"/>
<path style="fill:#fdc212; stroke:none;" d="M99 77L100 78L99 77M363 77L364 78L363 77M82 79L83 80L82 79M346 80L347 81L346 80M348 85L349 86L348 85M86 88L87 89L86 88M87 90L88 91L87 90M353 93L354 94L353 93M97 101L98 102L97 101M114 110L115 111L114 110z"/>
<path style="fill:#f69b32; stroke:none;" d="M232 233L381 233C382.406 221.872 383.863 210.219 383.996 199C384.041 195.204 384.916 189.558 382.258 186.434C376.993 180.244 354.642 184 347 184L279 184C269.126 184 256.58 186.084 247 183.682C239.883 181.898 236.024 173.465 230 169.742C225.753 167.118 220.406 169.484 216.379 166.972C211.465 163.907 209.422 157.61 204 154.533C190.743 147.009 162.052 149.967 154.417 164C138.318 193.595 179.116 206.899 201 198.867C206.135 196.982 214.731 183.602 219.043 185.176C237.308 191.841 232 218.153 232 233z"/>
<path style="fill:#fdc212; stroke:none;" d="M205 155L206 156L205 155z"/>
<path style="fill:#fff; stroke:none;" d="M176.004 168.533C169.976 170.019 166.112 177.658 172.228 181.91C176.919 185.171 186.665 184.781 191.996 183.467C198.024 181.981 201.888 174.342 195.772 170.09C191.081 166.829 181.335 167.219 176.004 168.533z"/>
<path style="fill:#fdc212; stroke:none;" d="M205 196L206 197L205 196z"/>
<path style="fill:#fff; stroke:none;" d="M248 200L248 216L264 216L264 200L248 200M280 200L280 216L296 216L296 200L280 200M312 200L312 216L328 216L328 200L312 200M344 200L344 216L366 216L367 200L344 200M248 232L248 248L264 248L264 232L248 232M280 232L280 248L296 248L296 232L280 232M312 232L312 248L328 248L328 232L312 232M344 232L344 248L363 248L364 232L344 232z"/>
<path style="fill:#ee643c; stroke:none;" d="M232 233L232 300C232 306.504 229.551 319.431 233.603 324.852C236.953 329.333 244.109 328 249 328C247.933 331.609 247.856 335.231 248.04 339C249.718 373.287 305.266 362.731 295 328L313 328C302.734 362.731 358.282 373.287 359.96 339C360.144 335.231 360.067 331.609 359 328C365.987 328.019 372.424 328.605 375 336L392 336C391.905 324.725 385.088 313.71 373 312.185C359.41 310.471 344.7 312 331 312L248 312L248 296L342 296C349.538 296 368.857 299.438 374.272 293.427C377.85 289.457 376.711 282.863 377.285 278C379.05 263.051 379.449 247.979 381 233L364 233L363 248L344 248L344 233L328 233L328 248L312 248L312 233L296 233L296 248L280 248L280 233L264 233L264 248L248 248L248 233L232 233M424 233L424 373C424 396.497 425.516 420.562 423.91 444C422.199 468.996 397.692 490.254 374.001 473.211C356.725 460.784 356.728 435.214 374.001 422.789C381.105 417.678 390.002 419.177 396.772 414.836C401.037 412.1 401.179 403.874 396.772 401.179C391.735 398.099 381.721 400 376 400L325 400L136 400L136 344L120 344L120 383C120 387.315 121.439 394.929 118.972 398.686C115.431 404.079 101.523 406.539 96.0039 411.301C78.3689 426.518 74.9127 454.423 87.0656 474C103.762 500.897 134.783 496 162 496L353 496C379.315 496 410.713 501.853 429.535 478.999C445.585 459.513 440 429.578 440 406L440 233L424 233z"/>
<path style="fill:#f69b32; stroke:none;" d="M364 234L364 237L365 237L364 234M380 235L381 236L380 235M380.333 237.667L380.667 238.333L380.333 237.667M363 240L364 241L363 240M380 240L381 241L380 240z"/>
<path style="fill:#ee643c; stroke:none;" d="M104 248L104 264L120 264L120 248L104 248M136 248L136 264L200 264L200 248L136 248z"/>
<path style="fill:#f69b32; stroke:none;" d="M379 252L380 253L379 252z"/>
<path style="fill:#fff; stroke:none;" d="M248 264L248 280L264 280L264 264L248 264M280 264L280 280L296 280L296 264L280 264M312 264L312 280L328 280L328 264L312 264M344 264L344 280L360 280L361 264L344 264z"/>
<path style="fill:#f69b32; stroke:none;" d="M361 264L362 265L361 264M378 264L379 265L378 264z"/>
<path style="fill:#fe0d0d; stroke:none;" d="M360 275L361 276L360 275z"/>
<path style="fill:#f69b32; stroke:none;" d="M377 276L378 277L377 276z"/>
<path style="fill:#ee643c; stroke:none;" d="M64 280L64 296L80 296L80 280L64 280M96 280L96 296L176 296L176 280L96 280z"/>
<path style="fill:#f69b32; stroke:none;" d="M376 288L377 289L376 288M373 294L374 295L373 294z"/>
<path style="fill:#ee643c; stroke:none;" d="M40 312L40 328L56 328L56 312L40 312M72 312L72 328L104 328L104 312L72 312M120 312L120 328L216 328L216 312L120 312z"/>
<path style="fill:#f69b32; stroke:none;" d="M381 315L382 316L381 315M233 325L234 326L233 325M234 326L235 327L234 326M272 328L273 329L272 328M336 328L337 329L336 328z"/>
<path style="fill:#fe0d0d; stroke:none;" d="M268 329L269 330L268 329z"/>
<path style="fill:#fff; stroke:none;" d="M269.109 329.746C261.026 333.097 266.598 345.692 274.891 342.254C282.974 338.903 277.402 326.308 269.109 329.746z"/>
<path style="fill:#f69b32; stroke:none;" d="M275 329L276 330L275 329z"/>
<path style="fill:#fe0d0d; stroke:none;" d="M332 329L333 330L332 329z"/>
<path style="fill:#fff; stroke:none;" d="M333.109 329.746C325.026 333.097 330.598 345.692 338.891 342.254C346.974 338.903 341.402 326.308 333.109 329.746z"/>
<path style="fill:#f69b32; stroke:none;" d="M339 329L340 330L339 329z"/>
<path style="fill:#fe0d0d; stroke:none;" d="M265 332L266 333L265 332z"/>
<path style="fill:#f69b32; stroke:none;" d="M278 332L279 333L278 332z"/>
<path style="fill:#fe0d0d; stroke:none;" d="M329 332L330 333L329 332z"/>
<path style="fill:#f69b32; stroke:none;" d="M342 332L343 333L342 332M265 339L266 340L265 339M329 339L330 340L329 339M268 342L269 343L268 342M332 342L333 343L332 342M118 400L119 401L118 400z"/>
<path style="fill:#fff; stroke:none;" d="M355 480C341.666 455.959 341.633 440.01 355 416L153 416C127.186 416 93.3294 417.645 97.1736 453C100.485 483.452 135.914 480 158 480L355 480z"/>
<path style="fill:#fe0d0d; stroke:none;" d="M391 416L392 417L391 416M120 417L121 418L120 417M87 421L88 422L87 421z"/>
<path style="fill:#f69b32; stroke:none;" d="M349 424L350 425L349 424z"/>
<path style="fill:#fe0d0d; stroke:none;" d="M97 440L98 441L97 440z"/>
<path style="fill:#f69b32; stroke:none;" d="M360 447L361 448L360 447z"/>
<path style="fill:#fe0d0d; stroke:none;" d="M97 455L98 456L97 455M422 455L423 456L422 455M80 456L81 457L80 456M436 467L437 468L436 467M430 477L431 478L430 477z"/>
<path style="fill:#f69b32; stroke:none;" d="M120 478L121 479L120 478z"/>
<path style="fill:#fe0d0d; stroke:none;" d="M421 486L422 487L421 486M411 492L412 493L411 492M118 495L119 496L118 495z"/>
</svg>
