<?xml version="1.0" standalone="yes"?>
<svg xmlns="http://www.w3.org/2000/svg" width="512" height="512">
<path style="fill:#f46720; stroke:none;" d="M120 336L88 336L88 112L104 112L104 96C97.1441 96 77.2216 92.6166 73.179 99.2284C70.5734 103.49 72 111.195 72 116L72 157L72 296L72 333C72 337.572 70.6954 344.71 73.179 348.772C77.1569 355.278 96.3023 352 103 352L191 352L191 336L136 336L136 48L191 48L191 32L140 32C135.013 32 125.37 30.1692 121.742 34.4337C117.858 38.9999 120 50.3584 120 56L120 113L120 336z"/>
<path style="fill:#fa9f29; stroke:none;" d="M191 32L191 48L368 48L368 32L191 32z"/>
<path style="fill:#ffcd31; stroke:none;" d="M368 32L368 48L376 48L376 336L368 336L368 352L420 352C424.987 352 434.63 353.831 438.258 349.566C441.51 345.743 440 337.664 440 333L440 291L440 156L440 117C440 111.976 441.278 104.806 439.258 100.109C435.966 92.4542 414.96 96 408 96L408 112L424 112L424 336L392 336L392 104L392 53C392 47.6946 393.787 38.4233 389.682 34.3179C385.182 29.8174 373.877 32 368 32z"/>
<path style="fill:#fa9f29; stroke:none;" d="M389 33L390 34L389 33M390 34L391 35L390 34z"/>
<path style="fill:#fff; stroke:none;" d="M136 48L136 336L376 336L376 48L136 48z"/>
<path style="fill:#f46720; stroke:none;" d="M191 416L191 400L99 400C85.448 400 70.1408 401.355 61.2207 388.961C55.5907 381.138 56 371.206 56 362L56 318L56 164L56 121C56 112.945 55.1149 103.589 58.3665 96C66.31 77.4609 87.4129 80 104 80L104 64C80.8074 64 56.7908 61.1159 43.9012 85C39.1845 93.7399 40 103.415 40 113L40 157L40 326C40 348.567 33.5484 381.984 47.7608 400.999C59.4618 416.654 76.476 416 94 416L191 416z"/>
<path style="fill:#ffcd31; stroke:none;" d="M408 64L408 80C424.035 80 445.139 77.2965 453.095 95C461.519 113.747 456 143.77 456 164L456 319L456 363C456 372.559 455.976 382.845 449.64 390.674C442.98 398.905 431.844 399.996 422 400L368 400L368 416L420 416C436.091 416 451.195 416.406 462.674 402.985C478.591 384.377 472 350.874 472 328L472 157L472 113C472 103.415 472.815 93.7399 468.099 85C455.242 61.1772 431.134 64 408 64z"/>
<path style="fill:#fa9f29; stroke:none;" d="M447 66L448 67L447 66M248 80.5178C207.122 89.2522 222.912 152.262 264 143.482C304.911 134.741 289.164 71.7223 248 80.5178z"/>
<path style="fill:#ffcd31; stroke:none;" d="M267 81L268 82L267 81z"/>
<path style="fill:#f46720; stroke:none;" d="M238 84L239 85L238 84z"/>
<path style="fill:#fa9f29; stroke:none;" d="M447 86L448 87L447 86z"/>
<path style="fill:#f46720; stroke:none;" d="M233 88L234 89L233 88z"/>
<path style="fill:#fa9f29; stroke:none;" d="M449 88L450 89L449 88z"/>
<path style="fill:#f46720; stroke:none;" d="M228 94L229 95L228 94M283 94L284 95L283 94z"/>
<path style="fill:#ff0101; stroke:none;" d="M57 97L58 98L57 97z"/>
<path style="fill:#fff; stroke:none;" d="M251 97.6528C232.381 103.499 242.299 132.219 261 126.347C279.619 120.501 269.701 91.7809 251 97.6528z"/>
<path style="fill:#f46720; stroke:none;" d="M248 98L249 99L248 98z"/>
<path style="fill:#ffcd31; stroke:none;" d="M225 100L226 101L225 100z"/>
<path style="fill:#f46720; stroke:none;" d="M242 104L243 105L242 104M240 111L241 112L240 111z"/>
<path style="fill:#ffcd31; stroke:none;" d="M228 129L229 130L228 129M283 129L284 130L283 129M231 133L232 134L231 133z"/>
<path style="fill:#f46720; stroke:none;" d="M280 133L281 134L280 133z"/>
<path style="fill:#ffcd31; stroke:none;" d="M234 136L235 137L234 136z"/>
<path style="fill:#f46720; stroke:none;" d="M277 136L278 137L277 136z"/>
<path style="fill:#ffcd31; stroke:none;" d="M238 139L239 140L238 139M273 139L274 140L273 139z"/>
<path style="fill:#fa9f29; stroke:none;" d="M208 208L224 208C224.029 197.48 225.806 187.059 233.185 179.04C247.958 162.986 273.516 167.066 283.676 186C287.233 192.63 287.939 200.574 288 208L304 208C304 193.17 303.175 179.781 292.815 168.001C270.945 143.132 228.802 147.672 213.123 177C207.767 187.019 208 196.983 208 208z"/>
<path style="fill:#f46720; stroke:none;" d="M236 155L237 156L236 155M275 155L276 156L275 155M234 156L235 157L234 156M277 156L278 157L277 156M232 157L233 158L232 157M279 157L280 158L279 157M226 161L227 162L226 161z"/>
<path style="fill:#ffcd31; stroke:none;" d="M248 169L249 170L248 169M263 169L264 170L263 169z"/>
<path style="fill:#f46720; stroke:none;" d="M217 170L218 171L217 170M213 176L214 177L213 176z"/>
<path style="fill:#ffcd31; stroke:none;" d="M298 176L299 177L298 176M299 178L300 179L299 178M211 180L212 181L211 180z"/>
<path style="fill:#f46720; stroke:none;" d="M300 180L301 181L300 180z"/>
<path style="fill:#ffcd31; stroke:none;" d="M225 192L226 193L225 192M286 192L287 193L286 192z"/>
<path style="fill:#f46720; stroke:none;" d="M224 199L225 200L224 199M168 240L168 256L191 256L191 240L168 240z"/>
<path style="fill:#fa9f29; stroke:none;" d="M191 240L191 256L344 256L344 240L191 240z"/>
<path style="fill:#f46720; stroke:none;" d="M168 288L168 304L191 304L191 288L168 288z"/>
<path style="fill:#fa9f29; stroke:none;" d="M191 288L191 304L344 304L344 288L191 288M191 336L191 352L368 352L368 336L191 336M224 368L224 384L288 384L288 368L224 368z"/>
<path style="fill:#ff0101; stroke:none;" d="M57 382L58 383L57 382z"/>
<path style="fill:#fa9f29; stroke:none;" d="M449 391L450 392L449 391M447 393L448 394L447 393z"/>
<path style="fill:#ff0101; stroke:none;" d="M73 398L74 399L73 398z"/>
<path style="fill:#fa9f29; stroke:none;" d="M191 400L191 416L209 416C208.992 428.775 206.58 441.419 201.055 453C198.725 457.882 196.744 463.066 191 464L191 480L336 480L336 464C330.844 464 322.732 465.528 318.104 462.972C305.462 455.99 303.008 428.59 303 416L368 416L368 400L191 400z"/>
<path style="fill:#fff; stroke:none;" d="M226 416C226 433.551 221.676 447.944 215 464L297 464C290.324 447.944 286 433.551 286 416L226 416z"/>
<path style="fill:#ffcd31; stroke:none;" d="M207 433L208 434L207 433z"/>
<path style="fill:#f46720; stroke:none;" d="M224 436L225 437L224 436M206 438L207 439L206 438M290 448L291 449L290 448z"/>
<path style="fill:#ffcd31; stroke:none;" d="M220 451L221 452L220 451z"/>
<path style="fill:#f46720; stroke:none;" d="M291 451L292 452L291 451z"/>
<path style="fill:#ffcd31; stroke:none;" d="M201 452L202 453L201 452M310 452L311 453L310 452M200 454L201 455L200 454z"/>
<path style="fill:#f46720; stroke:none;" d="M311 454L312 455L311 454M218 456L219 457L218 456M293 456L294 457L293 456M312 456L313 457L312 456M198 458L199 459L198 458M195 463L196 464L195 463M176 464L176 480L191 480L191 464L176 464z"/>
</svg>
