<?xml version="1.0" standalone="yes"?>
<svg xmlns="http://www.w3.org/2000/svg" width="512" height="512">
<path style="fill:#fff307; stroke:none;" d="M73 156C75.9735 151.779 81.3918 148.147 82.6821 143C87.3005 124.579 79.2048 107.962 96.0147 93.2099C111.312 79.785 127.503 88.4789 144 82.3966C149.554 80.349 154.695 73.692 158 69C124.632 69 83.5733 64.2592 70.6713 104C68.4516 110.837 69 117.898 69 125C69 133.783 65.7036 149.857 73 156z"/>
<path style="fill:#ffae67; stroke:none;" d="M145 83L288 83C308.737 83 332.266 80.5922 346.471 99C356.984 112.625 354 131.879 354 148L354 256L367.397 242L369 211L369 148C389.67 148 410.37 146.359 423.239 166C426.29 170.656 427.237 175.835 429 181L442 170C428.746 135.836 401.42 133 369 133C369 123.07 369.468 112.511 366.135 103C354.696 70.3592 324.2 69 295 69L222 69L179 69C173.015 69 164.667 67.5141 159 69.6034C153.446 71.651 148.305 78.308 145 83z"/>
<path style="fill:#ff6f5d; stroke:none;" d="M333 71L334 72L333 71z"/>
<path style="fill:#fff307; stroke:none;" d="M352 82L353 83L352 82M315 83L316 84L315 83z"/>
<path style="fill:#ffae67; stroke:none;" d="M112 84L113 85L112 84z"/>
<path style="fill:#ff6f5d; stroke:none;" d="M354 84L355 85L354 84z"/>
<path style="fill:#fff307; stroke:none;" d="M355 85L356 86L355 85M330 86L331 87L330 86M356 86L357 87L356 86M336 89L337 90L336 89z"/>
<path style="fill:#ffae67; stroke:none;" d="M97 91L98 92L97 91z"/>
<path style="fill:#ff6f5d; stroke:none;" d="M339 91L340 92L339 91M365 101L366 102L365 101z"/>
<path style="fill:#fff307; stroke:none;" d="M140 119L141 120L140 119z"/>
<path style="fill:#ffae67; stroke:none;" d="M141.044 119.742C134.334 122.477 135.255 131.657 142.015 133.566C152.817 136.617 167.781 134 179 134L259 134C268.34 134 290.155 138.016 297.772 132.258C302.301 128.833 301.192 121.663 295.956 119.603C289.441 117.041 278.953 119 272 119L180 119C169.014 119 151.241 115.587 141.044 119.742z"/>
<path style="fill:#ff6f5d; stroke:none;" d="M407 135L408 136L407 135M410 136L411 137L410 136z"/>
<path style="fill:#fff307; stroke:none;" d="M420 141L421 142L420 141z"/>
<path style="fill:#ffae67; stroke:none;" d="M82 145L73 156C79.8228 155.919 85.1092 152.429 82 145z"/>
<path style="fill:#ff6f5d; stroke:none;" d="M432 152L433 153L432 152z"/>
<path style="fill:#ffae67; stroke:none;" d="M71 154L72 155L71 154z"/>
<path style="fill:#fff307; stroke:none;" d="M412 154L413 155L412 154M75.6667 156.333L76.3333 156.667L75.6667 156.333z"/>
<path style="fill:#ff6f5d; stroke:none;" d="M435 156L436 157L435 156M416 157L417 158L416 157M437 159L438 160L437 159M438 161L439 162L438 161M439 163L440 164L439 163M440 166L441 167L440 166M428 180L429 262L429 413C415.055 402.375 403.145 388.88 390 377.285C382.967 371.082 374.853 360.123 366 356.742C358.009 353.69 345.499 356 337 356C330.843 356 306.003 354.255 314.18 367.772C316.571 371.725 322.058 370.998 326 371C335.876 371.004 348.418 368.916 358 371.318C364.755 373.011 372.079 382.237 377 387.014C389.692 399.334 403.31 410.696 416 423.014C421.032 427.899 431.671 441.613 439.852 436.82C444.801 433.921 443 424.819 443 420L443 373L443 242C443 218.276 444.974 193.532 442 170L428 180z"/>
<path style="fill:#ffae67; stroke:none;" d="M142.019 173.573C135.499 175.517 134.286 184.739 141.044 187.397C150.53 191.128 166.819 188 177 188L260 188C268.913 188 290.588 191.945 297.772 186.397C302.355 182.857 301.158 176.013 295.956 173.894C288.785 170.971 277.653 173 270 173L182 173C169.93 173 153.601 170.117 142.019 173.573M442 173L443 174L442 173z"/>
<path style="fill:#fff307; stroke:none;" d="M136 178L137 179L136 178M74 180L75 181L74 180z"/>
<path style="fill:#ffae67; stroke:none;" d="M75.0046 180.762C65.7978 182.157 66.4776 201.847 76.9853 200.562C86.3746 199.414 85.273 179.205 75.0046 180.762z"/>
<path style="fill:#fff307; stroke:none;" d="M77 180L78 181L77 180M70 182L71 183L70 182M81 182L82 183L81 182M300 183L301 184L300 183M298 186L299 187L298 186M73 200L74 201L73 200M78 200L79 201L78 200M72 226L73 227L72 226z"/>
<path style="fill:#ffae67; stroke:none;" d="M143 315C143.017 340.077 155.615 362.123 181 369.079C191.382 371.925 202.344 371 213 371C220.758 371 230.463 372.572 238 370.682C245.82 368.721 249.113 359.214 257 357L257 356C228.339 356 173.106 367.006 160.549 332C157.649 323.918 158 315.435 158 307L269 307C288.73 307 305.3 310.029 318 292L198 292L163 292L146 292.742L127 308.715L83 349C83 332.649 83.1722 316.32 83.5448 300C83.7861 289.426 83 278.624 83 268C83 256.755 85.5855 241.9 82.6821 231.044C81.2337 225.628 73.155 224.361 70.179 229.228C65.9608 236.127 69 252.049 69 260L69 337C69 344.456 65.0352 369.689 73.1088 373.127C80.6782 376.351 88.1546 365.785 93 361.576C110.108 346.714 126.976 331.024 143 315M140.109 229.028C133.585 232.702 136.534 241.306 143.005 242.656C154.759 245.108 168.997 243 181 243L260 243C268.993 243 291.755 247.063 298.566 240.486C302.329 236.853 300.682 230.462 295.956 228.603C289.441 226.041 278.953 228 272 228L177 228C167.504 228 148.434 224.339 140.109 229.028z"/>
<path style="fill:#fff307; stroke:none;" d="M69 229L70 230L69 229M298 229L299 230L298 229z"/>
<path style="fill:#ff6f5d; stroke:none;" d="M368 231C368 233.666 369.166 239.668 368 242C365.2 247.6 356.8 250.4 354 256C350.048 263.905 352.18 274.365 342 282C337.223 285.583 321.323 291.387 321 293L299 306L299 307C310.052 307 321.264 307.729 332 304.561C356.712 297.267 368.961 275.583 369 251C369.01 244.852 370.392 236.701 368 231z"/>
<path style="fill:#fff307; stroke:none;" d="M300 232L301 233L300 232M136 237L137 238L136 237z"/>
<path style="fill:#ffae67; stroke:none;" d="M353 259L354 260L353 259z"/>
<path style="fill:#fff307; stroke:none;" d="M368 259L369 260L368 259z"/>
<path style="fill:#ffae67; stroke:none;" d="M353 261L354 262L353 261M351 268L352 269L351 268z"/>
<path style="fill:#fff307; stroke:none;" d="M349 272L350 273L349 272z"/>
<path style="fill:#ffae67; stroke:none;" d="M364 276L365 277L364 276M345 278L346 279L345 278M344 279L345 280L344 279M343 280L344 281L343 280z"/>
<path style="fill:#fff307; stroke:none;" d="M362 280L363 281L362 280z"/>
<path style="fill:#ffae67; stroke:none;" d="M342 281L343 282L342 281M337 285L338 286L337 285M329 289L330 290L329 289M322 291L323 292L322 291M320 292L321 293L320 292z"/>
<path style="fill:#fff307; stroke:none;" d="M349 295L350 296L349 295M139 297L140 298L139 297z"/>
<path style="fill:#ffae67; stroke:none;" d="M346 297L347 298L346 297M341 300L342 301L341 300z"/>
<path style="fill:#fff307; stroke:none;" d="M337 302L338 303L337 302M126 309L127 310L126 309z"/>
<path style="fill:#ff6f5d; stroke:none;" d="M142 315L143 316L142 315M113 321L114 322L113 321z"/>
<path style="fill:#fff307; stroke:none;" d="M158 323L159 324L158 323z"/>
<path style="fill:#ff6f5d; stroke:none;" d="M129 327L130 328L129 327z"/>
<path style="fill:#fff307; stroke:none;" d="M101 332L102 333L101 332z"/>
<path style="fill:#ff6f5d; stroke:none;" d="M160 332L161 333L160 332z"/>
<path style="fill:#fff307; stroke:none;" d="M145 335L146 336L145 335M163 338L164 339L163 338M116 339L117 340L116 339M166 342L167 343L166 342M88 344L89 345L88 344z"/>
<path style="fill:#ff6f5d; stroke:none;" d="M104 350L105 351L104 350M240 371C245.523 371 254.914 372.791 259.772 369.821C264.887 366.693 263.362 357.275 256.995 356.917C250.41 356.546 243.341 366.257 240 371M285.019 356.746C274.851 360.658 282.276 374.238 291.945 370.258C301.174 366.459 293.619 353.438 285.019 356.746z"/>
<path style="fill:#fff307; stroke:none;" d="M293 357L294 358L293 357z"/>
<path style="fill:#ffae67; stroke:none;" d="M261 358L262 359L261 358M294 358L295 359L294 358M313 360L314 361L313 360z"/>
<path style="fill:#fff307; stroke:none;" d="M91 362L92 363L91 362z"/>
<path style="fill:#ffae67; stroke:none;" d="M296 363L297 364L296 363z"/>
<path style="fill:#ff0101; stroke:none;" d="M375 364L376 365L375 364z"/>
<path style="fill:#ff6f5d; stroke:none;" d="M176 367L177 368L176 367z"/>
<path style="fill:#ffae67; stroke:none;" d="M262 367L263 368L262 367M282 369L283 370L282 369z"/>
<path style="fill:#ff0101; stroke:none;" d="M360 371L361 372L360 371z"/>
<path style="fill:#fff307; stroke:none;" d="M71 372L72 373L71 372z"/>
<path style="fill:#ff0101; stroke:none;" d="M372 382L373 383L372 382M385 394L386 395L385 394M398 406L399 407L398 406M426 411L427 412L426 411M411 418L412 419L411 418M424 430L425 431L424 430z"/>
</svg>
