<?xml version="1.0" standalone="yes"?>
<svg xmlns="http://www.w3.org/2000/svg" width="512" height="512">
<path style="fill:#fdc811; stroke:none;" d="M32 88C14.6011 88 16 95.7641 16 111L48 111C48 89.7931 39.6352 47.5814 62 35.4174C71.7958 30.0896 85.2747 32 96 32C96 43.7783 96.1579 55.1326 108 61.5826C116.83 66.3921 130.255 64 140 64L211 64C220.978 64 235.04 66.5516 244 61.4668C255.791 54.7752 256 43.9737 256 32C272.706 32 296.075 29.5974 302.215 50C304.359 57.1266 304 64.6562 304 72C276.494 72.003 246.86 80.3723 223 94.0008C215.224 98.4423 204.728 103.112 200 111C208.479 111 219.866 113.045 228 110.795C235.845 108.624 243.365 103.226 251 100.204C264.999 94.6624 280.059 91.0724 295 89.2855C319.745 86.3261 345.594 90.3542 369 98.6921C378.224 101.978 386.656 107.914 396 110.645C406.337 113.667 417.693 108.633 428 113C422.225 105.912 412.771 101.062 405 96.3997C379.989 81.3932 349.275 72.0032 320 72C320 51.535 320.522 31.8852 300 20.5146C283.77 11.5222 259.001 16 241 16L106 16C86.0678 16 61.3118 11.386 45.0147 25.3256C27.071 40.6736 32 66.9758 32 88z"/>
<path style="fill:#f59835; stroke:none;" d="M295 18L296 19L295 18z"/>
<path style="fill:#fff; stroke:none;" d="M304 440C281.891 439.998 259.208 433.995 239 425.281C137.618 381.565 97.3732 255.188 154 161C162.851 146.278 173.974 131.83 187 120.576C202.602 107.097 218.961 95.3268 238 87.1505C258.605 78.3014 281.443 72.0025 304 72C304 64.3372 304.453 56.438 302.215 49C296.194 28.9917 272.278 32 256 32C256 44.1841 255.062 55.0229 243 61.5826C234.38 66.2701 221.504 64 212 64L142 64C132.004 64 118.053 66.5056 109 61.5826C96.9379 55.0229 96 44.1841 96 32C80.4753 32 58.9932 28.9578 50.9198 46C46.4062 55.5276 48 67.7796 48 78L48 141L48 366L48 441C48 453.198 47.4129 466.285 58.0039 474.606C71.2656 485.027 98.1406 480 114 480L236 480C252.076 480 275.131 484.124 290 477.08C304.652 470.139 304 453.763 304 440M112 32C112.018 38.6017 112.407 45.5943 120.004 47.4668C128.007 49.4394 137.788 48 146 48L198 48C208.604 48 222.847 50.4762 232.985 47.196C239.837 44.9788 239.983 38.0987 240 32L112 32z"/>
<path style="fill:#f59835; stroke:none;" d="M113 43L114 44L113 43M238 43L239 44L238 43M116 46L117 47L116 46M235 46L236 47L235 46M99 53L100 54L99 53M252 53L253 54L252 53M245 60L246 61L245 60M293 72L294 73L293 72M330 72L331 73L330 72M279 74L280 75L279 74M358 77L359 78L358 77M246 83L247 84L246 83M241 85L242 86L241 85M382 85L383 86L382 85M234 88L235 89L234 88z"/>
<path style="fill:#fff; stroke:none;" d="M309 88.4282C292.978 90.3413 277.621 91.1851 262 96.0255C216.512 110.12 179.07 143.842 159.309 187C107.234 300.729 203.05 437.778 329 422.715C407.311 413.349 471.243 351.407 478.83 272C486.459 192.163 433.395 113.816 355 94.1266C340.761 90.5503 323.717 86.6709 309 88.4282z"/>
<path style="fill:#f59835; stroke:none;" d="M315 88L316 89L315 88M389 88L390 89L389 88M293 89L294 90L293 89M330 89L331 90L330 89M352 93L353 94L352 93M406 97L407 98L406 97M252 99L253 100L252 99M371 99L372 100L371 99M212 100L213 101L212 100M411 100L412 101L411 100M247 101L248 102L247 101M376 101L377 102L376 101M414 102L415 103L414 102M206 104L207 105L206 104M240 104L241 105L240 104M383 104L384 105L383 104M418 105L419 106L418 105M236 106L237 107L236 106M202 107L203 108L202 107M232 108L233 109L232 108M200 109L201 110L200 109M230 109L231 110L230 109M393 109L394 110L393 109z"/>
<path style="fill:#fdc811; stroke:none;" d="M198 110L199 111L198 110z"/>
<path style="fill:#f59835; stroke:none;" d="M147 286C133.87 215.491 169.501 150.789 227 112C206.541 103.415 188.647 116.657 175.834 131C150.053 159.861 132.975 195.319 128.834 234C127.475 246.697 127.214 259.267 128.09 272C128.308 275.176 128.197 282.785 130.792 284.972C134.014 287.687 142.977 286 147 286M395 110L396 111L395 110M16 111C16 116.932 13.3491 131.226 19.2284 134.821C22.6732 136.927 28.1301 136 32 136L32 168C27.7192 168 20.864 166.764 17.7423 170.434C15.3941 173.194 16.0013 177.646 16 181C15.997 188.72 12.5574 207.922 18.3179 213.682C21.682 217.046 27.6707 216 32 216L32 286L48 286L48 111L16 111M396 111L397 112L396 111M398 111C401.81 117.165 411.196 121.364 416.91 125.849C426.124 133.08 434.482 141.983 441.916 151C474.771 190.854 480.856 236.532 477 286L494 286C501.439 236.514 490.414 185.239 459.87 145C451.706 134.245 439.182 116.681 425.985 111.819C418.07 108.902 406.382 111 398 111z"/>
<path style="fill:#fdc811; stroke:none;" d="M193 114L194 115L193 114z"/>
<path style="fill:#f59835; stroke:none;" d="M337 156C367.067 162.956 399.237 188.58 408 219L425 214C411.036 172.99 373.592 145.066 332 137C334.059 134.202 338.777 131.331 339.654 127.961C340.71 123.905 332.865 116.397 329 116.346C324.571 116.287 319.823 123.177 317 126C302.639 140.361 301.312 146.312 316 161C319.14 164.14 323.52 170.537 328 171.654C335.784 173.595 341.387 161.395 337 156z"/>
<path style="fill:#fdc811; stroke:none;" d="M329 115L330 116L329 115M403 115L404 116L403 115M431 115L432 116L431 115M432 116L433 117L432 116M407 118L408 119L407 118M213 120L214 121L213 120M185 121L186 122L185 121M439 122L440 123L439 122M440 123L441 124L440 123M208 124L209 125L208 124M415 124L416 125L415 124M441 124L442 125L441 124M419 127L420 128L419 127M203 128L204 129L203 128M445 128L446 129L445 128M177 129L178 130L177 129M446 129L447 130L446 129M335 132L336 133L335 132M334 133L335 134L334 133M333 134L334 135L333 134M332 135L333 136L332 135M453 137L454 138L453 137z"/>
<path style="fill:#f59835; stroke:none;" d="M228 144.439C174.218 152.839 149.008 219.964 183.465 262C201.385 283.862 229.932 290.337 257.116 286.289C300.023 279.9 322.35 227.978 307.934 190C295.681 157.716 261.872 139.149 228 144.439z"/>
<path style="fill:#fdc811; stroke:none;" d="M357 144L358 145L357 144M438 146L439 147L438 146M184 147L185 148L184 147M266 148L267 149L266 148M180 152L181 153L180 152M443 152L444 153L443 152M198 156L199 157L198 156M467 156L468 157L467 156z"/>
<path style="fill:#fff; stroke:none;" d="M240 160.71C183.667 161.46 164.125 237.965 214 265.1C223.745 270.401 234.142 271.256 245 270.985C277.385 270.179 299.915 236.43 294.536 206C289.934 179.964 266.459 160.358 240 160.71z"/>
<path style="fill:#ee6d3d; stroke:none;" d="M241 160L242 161L241 160M449 160L450 161L449 160M219 164L220 165L219 164M170 166L171 167L170 166z"/>
<path style="fill:#fdc811; stroke:none;" d="M363 166L364 167L363 166M473 166L474 167L473 166z"/>
<path style="fill:#f59835; stroke:none;" d="M232 168C231.964 178.072 224.906 178.569 219.649 186.004C216.083 191.048 215.748 197.031 216.04 203C216.469 211.749 222.702 219.992 231 222.891C235.931 224.614 242.956 223.679 245.806 229.108C250.371 237.805 236.525 242.123 233 232L216 232C216.313 247.075 231.953 250.739 232 264L248 264C248.035 254.111 254.075 253.999 259.443 246.985C263.537 241.634 264.279 235.528 263.96 229C263.526 220.135 257.42 212.05 249 209.109C244.028 207.372 237.104 208.312 234.184 202.892C229.427 194.066 243.443 189.785 247 200L264 200C263.873 184.88 248.047 181.264 248 168L232 168z"/>
<path style="fill:#fdc811; stroke:none;" d="M208 170L209 171L208 170M271 170L272 171L271 170M226 179L227 180L226 179M384 182L385 183L384 182M407 182L408 183L407 182M194 184L195 185L194 184M285 184L286 185L285 184M140 187L141 188L140 187z"/>
<path style="fill:#ee6d3d; stroke:none;" d="M287 187L288 188L287 187z"/>
<path style="fill:#fdc811; stroke:none;" d="M483 187L484 188L483 187M412 189L413 190L412 189z"/>
<path style="fill:#ee6d3d; stroke:none;" d="M239.667 192.333L240.333 192.667L239.667 192.333M393 192L394 193L393 192z"/>
<path style="fill:#fdc811; stroke:none;" d="M236 193L237 194L236 193z"/>
<path style="fill:#ee6d3d; stroke:none;" d="M188 195L189 196L188 195M291 195L292 196L291 195z"/>
<path style="fill:#fdc811; stroke:none;" d="M233 196L234 197L233 196M418 199L419 200L418 199M186 201L187 202L186 201z"/>
<path style="fill:#ee6d3d; stroke:none;" d="M400 202L401 203L400 202z"/>
<path style="fill:#fdc811; stroke:none;" d="M420 203L421 204L420 203z"/>
<path style="fill:#ee6d3d; stroke:none;" d="M185 205L186 206L185 205z"/>
<path style="fill:#fdc811; stroke:none;" d="M421 205L422 206L421 205z"/>
<path style="fill:#ee6d3d; stroke:none;" d="M150 211L151 212L150 211M17 213L18 214L17 213M219 213L220 214L219 213M18 214L19 215L18 214M419 215L420 216L419 215M474 215L475 216L474 215M131 217L132 218L131 217M130 222L131 223L130 222z"/>
<path style="fill:#f59835; stroke:none;" d="M312 287C316.487 285.932 324.798 287.707 328.412 284.972C332.883 281.589 335.092 269.969 338.57 265C350.208 248.375 368.868 239.578 389 240.989C406.077 242.186 421.688 252.914 430.899 267C433.86 271.529 435.327 282.002 439.513 284.972C443.231 287.61 451.608 286 456 286C450.659 267.128 445.14 251.365 429 238.669C399.436 215.413 353.926 219.894 329.184 248C319.217 259.323 314.811 272.504 312 287z"/>
<path style="fill:#ee6d3d; stroke:none;" d="M476 224L477 225L476 224M363 226L364 227L363 226M168 227L169 228L168 227M357 228L358 229L357 228M410 228L411 229L410 228z"/>
<path style="fill:#fdc811; stroke:none;" d="M146 230L147 231L146 230M477 230L478 231L477 230z"/>
<path style="fill:#ee6d3d; stroke:none;" d="M128 236L129 237L128 236M188 236L189 237L188 236M291 236L292 237L291 236M342 236L343 237L342 236M145 237L146 238L145 237M478 237L479 238L478 237M216 238L217 239L216 238M239.667 239.333L240.333 239.667L239.667 239.333M308 239L309 240L308 239z"/>
<path style="fill:#fff; stroke:none;" d="M384 240.71C327.667 241.46 308.125 317.965 358 345.1C367.745 350.401 378.142 351.256 389 350.985C421.385 350.179 443.915 316.43 438.536 286C433.934 259.964 410.459 240.358 384 240.71z"/>
<path style="fill:#ee6d3d; stroke:none;" d="M385 240L386 241L385 240M262 241L263 242L262 241M287 244L288 245L287 244M363 244L364 245L363 244z"/>
<path style="fill:#fdc811; stroke:none;" d="M260 245L261 246L260 245M194 247L195 248L194 247M352 250L353 251L352 250M415 250L416 251L415 250M281 252L282 253L281 252z"/>
<path style="fill:#ee6d3d; stroke:none;" d="M228 253L229 254L228 253M251 253L252 254L251 253z"/>
<path style="fill:#fdc811; stroke:none;" d="M144 254L145 255L144 254z"/>
<path style="fill:#ee6d3d; stroke:none;" d="M249 254L250 255L249 254M324 254L325 255L324 254M479 254L480 255L479 254M496 254L496 258L497 258L496 254z"/>
<path style="fill:#f59835; stroke:none;" d="M346 290L373 285.397L384 278.056L395 285.397L417 286C411.249 277.836 403.061 271.046 396 264C392.908 260.914 389.638 256.696 385 256.167C379.716 255.566 375.513 259.688 372 263.039C363.289 271.351 352.925 280.169 346 290z"/>
<path style="fill:#ee6d3d; stroke:none;" d="M144 257L145 258L144 257z"/>
<path style="fill:#fdc811; stroke:none;" d="M276 257L277 258L276 257z"/>
<path style="fill:#ee6d3d; stroke:none;" d="M378 257L379 258L378 257M389 257L390 258L389 257M479 257L480 258L479 257M204 258L205 259L204 258M377 258L378 259L377 258M390 258L391 259L390 258M391 259L392 260L391 259M392 260L393 261L392 260z"/>
<path style="fill:#fdc811; stroke:none;" d="M271 261L272 262L271 261z"/>
<path style="fill:#ee6d3d; stroke:none;" d="M296 261L297 262L296 261M393 261L394 262L393 261M394 262L395 263L394 262M211 263L212 264L211 263M268 263L269 264L268 263M395 263L396 264L395 263z"/>
<path style="fill:#fdc811; stroke:none;" d="M338 264L339 265L338 264z"/>
<path style="fill:#ee6d3d; stroke:none;" d="M396 264L397 265L396 264z"/>
<path style="fill:#fdc811; stroke:none;" d="M429 264L430 265L429 264z"/>
<path style="fill:#ee6d3d; stroke:none;" d="M397 265L398 266L397 265M398 266L399 267L398 266M219 267L220 268L219 267M260 267L261 268L260 267M399 267L400 268L399 267M431 267L432 268L431 267M400 268L401 269L400 268M401 269L402 270L401 269M229 270L230 271L229 270M250 270L251 271L250 270M402 270L403 271L402 270M237 271L238 272L237 271M240 271L241 272L240 271M286 271L287 272L286 271M403 271L404 272L403 271M404 272L405 273L404 272M452 272L453 273L452 272M405 273L406 274L405 273M145 274L146 275L145 274M406 274L407 275L406 274M478 274L479 275L478 274M128 275L129 276L128 275M281 275L282 276L281 275M332 275L333 276L332 275M360 275L361 276L360 275M407 275L408 276L407 275M435 275L436 276L435 275M453.333 275.667L453.667 276.333L453.333 275.667M145 276L146 277L145 276M360 304L360 320L352 320L352 336L416 336L416 320L408 320L408 304C411.87 304 417.327 304.927 420.772 302.821C426.133 299.543 424.156 290.676 419.891 287.407C413.383 282.419 402.281 288.612 395 284.972C391.383 283.164 388.304 277.207 384 277.207C379.346 277.207 376.249 283.83 372 285.397C364.955 287.994 355.48 283.114 349.044 287.318C344.329 290.397 341.286 299.188 347.228 302.821C350.673 304.927 356.13 304 360 304M408 276L409 277L408 276z"/>
<path style="fill:#fff; stroke:none;" d="M373 288L395 288C387.065 276.736 380.935 276.736 373 288z"/>
<path style="fill:#ee6d3d; stroke:none;" d="M409 277L410 278L409 277M203 278L204 279L203 278M410 278L411 279L410 278M313 279L314 280L313 279M411 279L412 280L411 279M330 280L331 281L330 280M356 280L352 285L356 280M412 280L413 281L412 280M454.333 280.667L454.667 281.333L454.333 280.667M494.333 280.667L494.667 281.333L494.333 280.667M129.333 281.667L129.667 282.333L129.333 281.667z"/>
<path style="fill:#fdc811; stroke:none;" d="M146 281L147 282L146 281z"/>
<path style="fill:#ee6d3d; stroke:none;" d="M209 281L210 282L209 281z"/>
<path style="fill:#fdc811; stroke:none;" d="M330 281L331 282L330 281z"/>
<path style="fill:#ee6d3d; stroke:none;" d="M413 281L414 282L413 281M146.333 282.667L146.667 283.333L146.333 282.667M211 282L212 283L211 282M414 282L415 283L414 282M477 282L478 283L477 282M265 283L266 284L265 283M415 283L416 284L415 283M494 283L495 284L494 283M216 284L217 285L216 284M263 284L264 285L263 284M312 284L313 285L312 284M416 284L417 285L416 284M455 284L456 285L455 284M222 285L223 286L222 285M258 285L259 286L258 285M329 285L330 286L329 285M438 285L439 286L438 285M32 286L32 430C32 450.565 28.2148 474.221 47.0008 488.239C63.5611 500.596 88.499 496 108 496L241 496C259.001 496 283.77 500.478 300 491.485C320.451 480.154 320 460.401 320 440C404.68 439.991 482.897 369.409 494 286L477 286C456.523 385.207 349.437 450.658 253 412.399C236.909 406.015 221.478 397.685 208 386.739C187.128 369.789 170.504 348.449 159.309 324C155.617 315.937 152.682 307.531 150.294 299C149.378 295.73 149.272 290.226 147.012 287.603C144.056 284.175 134.145 286 130 286C140.773 369.421 219.566 439.991 304 440C304 454.716 303.819 470.856 288 477.633C272.962 484.077 250.08 480 234 480L115 480C98.7121 480 72.9497 484.791 59.0394 474.779C43.7504 463.776 48 440.388 48 424L48 286L32 286M223 286L223 287L226 287L223 286M227 286L227 287L254 287L227 286M255 286L256 287L255 286M312 287C313.223 305.026 312.665 320.041 323.101 336C349.344 376.131 410.332 379.163 440.532 342C454.675 324.597 454.857 307.035 456 286L439 286C439.374 304.216 436.863 320 423.826 333.961C386.412 374.028 322.117 337.727 329 286L312 287z"/>
<path style="fill:#f59835; stroke:none;" d="M229 287L230 288L229 287M231 287L232 288L231 287M234 287L235 288L234 287M250 287L251 288L250 287M328 287L329 288L328 287M476.333 287.667L476.667 288.333L476.333 287.667M130 289L131 290L130 289M312 289L313 290L312 289M328 289L329 290L328 289M455 289L456 290L455 289M493 289L494 290L493 289M328 292L329 293L328 292M439 292L439 297L440 297L439 292M475 292L476 293L475 292M212 293L213 294L212 293z"/>
<path style="fill:#ee6d3d; stroke:none;" d="M292 375C289.579 377.423 285.21 380.529 284.346 384C283.347 388.012 291.112 395.793 295 395.793C299.374 395.793 304.197 388.803 307 386C321.361 371.639 322.688 365.688 308 351C304.86 347.86 300.48 341.463 296 340.346C288.216 338.405 282.613 350.605 287 356C253.038 348.143 230.537 322.628 215 293C211.228 294.009 203.352 295.227 201.071 298.699C199.269 301.442 202.036 305.551 203.248 308C207.09 315.765 211.34 323.138 216.665 330C236.058 354.989 262.014 367.61 292 375z"/>
<path style="fill:#f59835; stroke:none;" d="M215 293L216 294L215 293M492 293L493 294L492 293M131 294L132 295L131 294M210 294L211 295L210 294M328 294L328 297L329 297L328 294M149 296L150 297L149 296M204 296L205 297L204 296M216 296L217 297L216 296M474 296L475 297L474 296M199 298L200 299L199 298z"/>
<path style="fill:#ff0101; stroke:none;" d="M472 303L473 304L472 303z"/>
<path style="fill:#fff; stroke:none;" d="M376 304L376 320L392 320L392 304L376 304z"/>
<path style="fill:#ff0101; stroke:none;" d="M202 306L203 307L202 306M203 308L204 309L203 308M204 310L205 311L204 310M211 322L212 323L211 322z"/>
<path style="fill:#f59835; stroke:none;" d="M336 324L337 325L336 324z"/>
<path style="fill:#ff0101; stroke:none;" d="M483 324L484 325L483 324M338 327L339 328L338 327z"/>
<path style="fill:#f59835; stroke:none;" d="M239 329L240 330L239 329M240 330L241 331L240 330M143 331L144 332L143 331M341 331L342 332L341 331z"/>
<path style="fill:#ff0101; stroke:none;" d="M480 331L481 332L480 331M425 332L426 333L425 332z"/>
<path style="fill:#f59835; stroke:none;" d="M445 334L446 335L445 334z"/>
<path style="fill:#ff0101; stroke:none;" d="M221 335L222 336L221 335M420 337L421 338L420 337z"/>
<path style="fill:#f59835; stroke:none;" d="M327 341L328 342L327 341M352 341L353 342L352 341z"/>
<path style="fill:#ff0101; stroke:none;" d="M415 341L416 342L415 341M150 345L151 346L150 345z"/>
<path style="fill:#f59835; stroke:none;" d="M260 345L261 346L260 345z"/>
<path style="fill:#ff0101; stroke:none;" d="M473 345L474 346L473 345M232 346L233 347L232 346M270 350L271 351L270 350z"/>
<path style="fill:#f59835; stroke:none;" d="M383 351L384 352L383 351M342 355L343 356L342 355M446 355L447 356L446 355M422 357L423 358L422 357M180 359L181 360L180 359M160 361L161 362L160 361M463 361L464 362L463 361M357 363L358 364L357 363z"/>
<path style="fill:#ff0101; stroke:none;" d="M437 366L438 367L437 366z"/>
<path style="fill:#f59835; stroke:none;" d="M266 367L267 368L266 367M281 372L282 373L281 372M290 374L291 375L290 374z"/>
<path style="fill:#ff0101; stroke:none;" d="M177 382L178 383L177 382M202 382L203 383L202 382M446 382L447 383L446 382z"/>
<path style="fill:#f59835; stroke:none;" d="M208 387L209 388L208 387z"/>
<path style="fill:#ff0101; stroke:none;" d="M185 390L186 391L185 390z"/>
<path style="fill:#f59835; stroke:none;" d="M411 390L412 391L411 390z"/>
<path style="fill:#ff0101; stroke:none;" d="M438 390L439 391L438 390z"/>
<path style="fill:#f59835; stroke:none;" d="M219 395L220 396L219 395z"/>
<path style="fill:#ff0101; stroke:none;" d="M206 407L207 408L206 407M417 407L418 408L417 407z"/>
<path style="fill:#f59835; stroke:none;" d="M209 409L210 410L209 409z"/>
<path style="fill:#ff0101; stroke:none;" d="M212 411L213 412L212 411z"/>
<path style="fill:#f59835; stroke:none;" d="M411 411L412 412L411 411z"/>
<path style="fill:#ff0101; stroke:none;" d="M359 416L360 417L359 416z"/>
<path style="fill:#f59835; stroke:none;" d="M399 418L400 419L399 418z"/>
<path style="fill:#ff0101; stroke:none;" d="M337 421L338 422L337 421z"/>
<path style="fill:#f59835; stroke:none;" d="M246 428L247 429L246 428z"/>
<path style="fill:#ff0101; stroke:none;" d="M362 433L363 434L362 433M293 439L294 440L293 439M330 439L331 440L330 439z"/>
<path style="fill:#f59835; stroke:none;" d="M49 462L50 463L49 462M302 462L303 463L302 462M34 471L35 472L34 471z"/>
<path style="fill:#ff0101; stroke:none;" d="M317 471L318 472L317 471M55 472L56 473L55 472z"/>
<path style="fill:#f59835; stroke:none;" d="M296 472L297 473L296 472M65 478L66 479L65 478M286 478L287 479L286 478z"/>
<path style="fill:#ff0101; stroke:none;" d="M295 493L296 494L295 493z"/>
</svg>
