<?xml version="1.0" standalone="yes"?>
<svg xmlns="http://www.w3.org/2000/svg" width="512" height="512">
<path style="fill:#fdc43f; stroke:none;" d="M122 81C96.3151 81 60.0062 74.4928 38 90.49C15.8942 106.56 18 130.636 18 155L18 299L32 286L32 297L33 297L33 167C51.1169 180.824 70.3053 180 92 180L161 180L161 179L139 179L152 165L137 165L137 33L252 33C259.681 33 287.194 37.2881 285.717 24.0146C284.799 15.7632 272.745 18 267 18L206 18L145 18C139.512 18 127.7 15.7818 123.742 20.4337C120.49 24.2569 122 32.3355 122 37L122 81M313 18L314 19L313 18z"/>
<path style="fill:#fba353; stroke:none;" d="M358 33L358 165L341 165L341 110C341 103.077 342.978 92.5305 340.397 86.0548C337.727 79.359 323.628 79.6592 318.04 74.696C310.787 68.253 312.809 57.2343 306.57 51.5285C302.971 48.2368 295.497 49.9997 291 50C274.502 50.001 264.441 49.1776 254 64L282 64C285.381 64 290.617 63.0585 293.581 65.0278C297.22 67.4452 298.175 74.3383 300.353 78C305.641 86.8942 315.604 94.0866 326 95L326 165L168 165L168 150L154 163L154 141L153 141L151.972 164L139 179C217.908 179 297.007 180 376 180L434 180C441.792 180 451.902 178.012 457.867 184.109C463.844 190.219 462 200.171 462 208L462 265L342 265C325.994 265 307.14 261.594 296.853 277C291.738 284.661 293 294.261 293 303L293 354C293 362.479 291.596 372.225 295.674 380C307.087 401.759 337.879 397.208 350 380C339.54 380 320.418 383.594 312.189 375.772C306.051 369.937 307 360.711 307 353L307 302C307.003 294.652 307.064 286.177 314.015 281.742C323.268 275.839 345.192 280 356 280L463 280L463 279L452 279C459.137 271.863 472.872 262.56 476.397 253C480.184 242.728 477 225.94 477 215L477 127C477 112.98 479.292 97.2793 466.985 87.3904C458.028 80.1923 445.791 81 435 81L373 81L373 38C373 33.0117 374.539 24.5802 371.142 20.4337C368.119 16.7439 361.204 18 357 18L326 18C321.769 18 316.04 17.0853 312.279 19.4568C300.275 27.0248 318.069 32.9927 324 33L337 33L358 33z"/>
<path style="fill:#fdc43f; stroke:none;" d="M311 19L312 20L311 19z"/>
<path style="fill:#f97e67; stroke:none;" d="M285 21L286 22L285 21z"/>
<path style="fill:#fdc43f; stroke:none;" d="M309 22L310 23L309 22M372 22L373 23L372 22z"/>
<path style="fill:#fba353; stroke:none;" d="M285 28L286 29L285 28M284 29L285 30L284 29M281.667 31.3333L282.333 31.6667L281.667 31.3333M280 32L281 33L280 32z"/>
<path style="fill:#fdc43f; stroke:none;" d="M315 32L316 33L315 32M154 163C175.111 148.129 168 118.181 168 95C178.357 94.4684 188.307 87.6341 193.815 79C196.275 75.1441 197.786 66.4792 202.144 64.6034C215.633 58.7982 236.48 66.1103 251 63.8519C258.857 62.6297 261.87 53.2321 269 50.6034C278.007 47.2825 292.417 50 302 50C294.841 46.9958 283.744 49 276 49L217 49C209.176 49 196.212 46.5539 189.225 50.5725C182.529 54.4233 183.46 68.4965 176.826 74.5324C170.995 79.8383 157.172 79.2108 154.148 86.108C151.326 92.5455 153 102.107 153 109C153 127.058 154 144.969 154 163M308 53L309 54L308 53z"/>
<path style="fill:#fba353; stroke:none;" d="M185 55L186 56L185 55z"/>
<path style="fill:#fff; stroke:none;" d="M168 165L326 165L326 115L324.972 96.51L315 91.2006L302.38 80L293.57 64.6034L271 64L222 64L201.303 64.6034L191.671 81L179 91.6759L169.028 96.5633L168 115L168 165z"/>
<path style="fill:#f97e67; stroke:none;" d="M312 68L313 69L312 68z"/>
<path style="fill:#fdc43f; stroke:none;" d="M296 69L297 70L296 69M314 71L315 72L314 71M298 74L299 75L298 74z"/>
<path style="fill:#fba353; stroke:none;" d="M195 75L196 76L195 75z"/>
<path style="fill:#fdc43f; stroke:none;" d="M322 78L323 79L322 78M451 81L452 82L451 81M457 82L458 83L457 82z"/>
<path style="fill:#fba353; stroke:none;" d="M52 83L53 84L52 83z"/>
<path style="fill:#fdc43f; stroke:none;" d="M462 84L463 85L462 84z"/>
<path style="fill:#fba353; stroke:none;" d="M153 87L154 88L153 87z"/>
<path style="fill:#fdc43f; stroke:none;" d="M311 89L312 90L311 89z"/>
<path style="fill:#fba353; stroke:none;" d="M181 90L182 91L181 90M34 93L35 94L34 93M175 93L176 94L175 93z"/>
<path style="fill:#fdc43f; stroke:none;" d="M472 93L473 94L472 93z"/>
<path style="fill:#fba353; stroke:none;" d="M168 95L169 96L168 95z"/>
<path style="fill:#fdc43f; stroke:none;" d="M325 95L326 96L325 95z"/>
<path style="fill:#fff; stroke:none;" d="M122 165L122 96C100.374 96 68.2846 90.0578 49.0008 101.349C25.4901 115.115 28.0229 151.166 53 161.767C72.5026 170.045 101.118 165 122 165M373 96L373 165C401.811 165 433.776 161.178 462 167L462 121C462 114.748 463.36 106.557 459.146 101.329C453.511 94.3381 442.906 96 435 96L373 96z"/>
<path style="fill:#fba353; stroke:none;" d="M52 99L53 100L52 99z"/>
<path style="fill:#fdc43f; stroke:none;" d="M457 99L458 100L457 99z"/>
<path style="fill:#f97e67; stroke:none;" d="M461 105L462 106L461 105z"/>
<path style="fill:#fba353; stroke:none;" d="M21 111L22 112L21 111M19 117L20 118L19 117M41 172L42 173L41 172z"/>
<path style="fill:#f97e67; stroke:none;" d="M49 176L50 177L49 176z"/>
<path style="fill:#fdc43f; stroke:none;" d="M460 186L461 187L460 186z"/>
<path style="fill:#f97e67; stroke:none;" d="M476 254L452 279L479 280L479 379L320 379L320 380L350 380L337 394L462 394L462 449C462 456.387 463.877 466.637 459.347 472.981C454.758 479.409 448.082 479 441 479L405 479L287 479C267.362 479 249.512 476.237 237 494L408 494C425.372 494 456.817 500.21 469.671 485.907C477.895 476.756 477 465.417 477 454L477 394C482.039 394 490.78 395.653 493.258 389.891C496.408 382.566 494 369.913 494 362L494 298C494 290.269 496.927 274.944 492.821 268.228C489.906 263.46 481.724 265 477 265L476 254z"/>
<path style="fill:#fba353; stroke:none;" d="M490 265L491 266L490 265z"/>
<path style="fill:#f97e67; stroke:none;" d="M307 267L308 268L307 267M300 272L301 273L300 272z"/>
<path style="fill:#fdc43f; stroke:none;" d="M315 280L316 281L315 280z"/>
<path style="fill:#fff; stroke:none;" d="M479 379L479 280L359 280C347.193 280 323.166 275.442 313.094 282.009C306.256 286.468 307 295.876 307 303L307 357C307 364.121 306.716 373.655 314.043 377.543C325.218 383.473 348.452 379 361 379L479 379z"/>
<path style="fill:#f97e67; stroke:none;" d="M313 281L314 282L313 281z"/>
<path style="fill:#fdc43f; stroke:none;" d="M293 284L294 285L293 284z"/>
<path style="fill:#f97e67; stroke:none;" d="M309 285L310 286L309 285z"/>
<path style="fill:#fba353; stroke:none;" d="M31 286C27.0821 289.918 21.5336 293.988 19.0278 299C14.2078 308.64 18 328.267 18 339L18 430C18 446.384 17.2002 462.51 28.3287 476C47.3084 499.007 77.4191 494 104 494C110.294 494 127.045 496.973 130.821 490.772C133.574 486.251 130.812 480.776 125.995 479.434C116.288 476.727 103.066 479 93 479C80.2983 479 64.7546 481.503 53 475.866C30.1698 464.916 33 441.199 33 420L33 328C33 315.487 35.8944 297.664 31 286M379 352L378 355L381 352L379 352C382.334 348.684 386.596 345.527 388.211 340.961C399.723 308.394 358.746 282.037 334.043 306.093C304.156 335.198 348.857 381.814 379 352z"/>
<path style="fill:#f97e67; stroke:none;" d="M368 298L369 299L368 298z"/>
<path style="fill:#fdc43f; stroke:none;" d="M343 299L344 300L343 299M341 300L342 301L341 300z"/>
<path style="fill:#f97e67; stroke:none;" d="M338 302L339 303L338 302z"/>
<path style="fill:#fdc43f; stroke:none;" d="M376 302L377 303L376 302z"/>
<path style="fill:#f97e67; stroke:none;" d="M383 309L384 310L383 309M351 312L352 313L351 312z"/>
<path style="fill:#fff; stroke:none;" d="M352 312.638C330.071 318.979 341.077 353.221 363 346.347C384.847 339.497 373.851 306.32 352 312.638z"/>
<path style="fill:#f97e67; stroke:none;" d="M328 313L329 314L328 313z"/>
<path style="fill:#fdc43f; stroke:none;" d="M349 313L350 314L349 313z"/>
<path style="fill:#f97e67; stroke:none;" d="M327 315L328 316L327 315M388 318L389 319L388 318M373 321L374 322L373 321M339 328L340 329L339 328z"/>
<path style="fill:#fdc43f; stroke:none;" d="M339 329L340 330L339 329z"/>
<path style="fill:#f97e67; stroke:none;" d="M389.333 335.667L389.667 336.333L389.333 335.667M325 337L326 338L325 337M373 337L374 338L373 337M342 339L343 340L342 339M388 340L389 341L388 340z"/>
<path style="fill:#fdc43f; stroke:none;" d="M370 341L371 342L370 341M369 342L370 343L369 342M327 343L328 344L327 343M346 343L347 344L346 343z"/>
<path style="fill:#f97e67; stroke:none;" d="M347 344L348 345L347 344z"/>
<path style="fill:#fdc43f; stroke:none;" d="M328 345L329 346L328 345z"/>
<path style="fill:#f97e67; stroke:none;" d="M385 345L379 352C382.537 350.959 385.325 348.94 385 345M351 346L352 347L351 346M358 347L359 348L358 347M378 352L373 358C375.966 356.786 378.496 355.467 378 352M372 358L373 359L372 358M369.667 359.333L370.333 359.667L369.667 359.333M350 361L351 362L350 361M362 361L362 362L365 362L362 361z"/>
<path style="fill:#fdc43f; stroke:none;" d="M308 371L309 372L308 371z"/>
<path style="fill:#f97e67; stroke:none;" d="M313 377L314 378L313 377M315 378L316 379L315 378z"/>
<path style="fill:#fdc43f; stroke:none;" d="M490 393L491 394L490 393M20 461L21 462L20 461z"/>
<path style="fill:#ff0101; stroke:none;" d="M476 472L477 473L476 472z"/>
<path style="fill:#fdc43f; stroke:none;" d="M51 475L52 476L51 475z"/>
<path style="fill:#ff0101; stroke:none;" d="M474 478L475 479L474 478z"/>
<path style="fill:#fba353; stroke:none;" d="M160.043 479.653C154.235 481.586 152.323 489.627 158.133 492.972C162.719 495.612 178.063 495.334 182.891 493.258C188.413 490.883 187.838 482.861 182.941 480.179C178.053 477.502 165.263 477.916 160.043 479.653z"/>
<path style="fill:#f97e67; stroke:none;" d="M216.667 479.333L217.333 479.667L216.667 479.333z"/>
<path style="fill:#fba353; stroke:none;" d="M263 480C253.091 475.842 228.565 477.144 218.004 479.483C212.037 480.804 208.001 488.831 214.344 492.821C229.195 502.163 240.253 486.401 251 481.028C254.495 479.28 259.205 480 263 480z"/>
<path style="fill:#f97e67; stroke:none;" d="M157 480L158 481L157 480z"/>
<path style="fill:#ff0101; stroke:none;" d="M473 480L474 481L473 480z"/>
<path style="fill:#fdc43f; stroke:none;" d="M155 482L156 483L155 482z"/>
<path style="fill:#ff0101; stroke:none;" d="M471 483L472 484L471 483z"/>
<path style="fill:#f97e67; stroke:none;" d="M154 488L155 489L154 488z"/>
<path style="fill:#fdc43f; stroke:none;" d="M50 491L51 492L50 491M212 491L213 492L212 491z"/>
<path style="fill:#f97e67; stroke:none;" d="M58 493L59 494L58 493z"/>
</svg>
