<?xml version="1.0" standalone="yes"?>
<svg xmlns="http://www.w3.org/2000/svg" width="512" height="512">

<path style="fill:#f69d31; stroke:none;" d="M48 16L48 160C42.3257 160 31.0108 157.849 26.4336 161.742C21.5442 165.902 24.8264 173.103 28.0193 177C37.6061 188.7 47.854 199.952 57 212C66.0204 209.852 80.1648 214.475 87.9599 209.4C98.7341 202.386 110.215 185.494 117.581 175C120.14 171.354 121.165 165.801 117.682 162.318C113.182 157.817 101.877 160 96 160L96 16L80 16L80 138C80 153.025 73.8667 175.998 94 176L78.8696 194L71.9252 199.944L65 194L50 176C53.6013 176 58.6056 176.776 61.5664 174.258C67.8575 168.906 64 145.79 64 138L64 16L48 16M152 80L152 125L151.501 147L139.397 169L116 210L135 212L151 183L152 183L152 211L168 211L168 32L360 32L360 211L376 211L376 80C386.929 80 399.25 81.8389 409 75.8812C428.273 64.1041 429.491 34.3529 410.91 21.2091C402.744 15.4331 393.498 16 384 16L341 16L196 16C174.749 16 147.569 11.4651 127 16.7608C103.375 22.8433 95.9195 54.8901 113.3 71.5355C124.126 81.9036 138.224 80 152 80z"/>
<path style="fill:#fffc02; stroke:none;" d="M118 20L119 21L118 20M414 24L415 25L414 24M111 26L112 27L111 26M108 30L109 31L108 30M419 30L420 31L419 30z"/>
<path style="fill:#fff; stroke:none;" d="M152 64L152 32C144.333 32 134.857 30.7776 128.015 35.0085C118.247 41.0491 118.805 56.2548 129.004 61.5471C135.815 65.0815 144.6 64 152 64M168 32L168 216L186 220C198.279 194.043 238.819 192.533 247.073 223C250.83 236.869 248 254.673 248 269C248 273.452 246.265 282.717 249.179 286.397C251.168 288.908 256.207 288 259 288L288 288C290.925 251.248 323.248 218.925 360 216L360 32L168 32M376 32L376 64C383.667 64 393.143 65.2224 399.985 60.9915C409.753 54.9508 409.195 39.7453 398.996 34.4529C392.185 30.9185 383.399 32 376 32z"/>
<path style="fill:#f69d31; stroke:none;" d="M253 48.4645C194.966 58.9094 193.792 143.012 249 158.572C256.931 160.807 266.898 160.842 275 159.384C332.996 148.946 334.242 64.9933 279 49.4283C271.195 47.2291 260.992 47.026 253 48.4645z"/>
<path style="fill:#fffc02; stroke:none;" d="M240 52L241 53L240 52M238 53L239 54L238 53M225 62L226 63L225 62z"/>
<path style="fill:#fff; stroke:none;" d="M263 64.5941C224.819 66.0205 210.794 116.706 243 137.451C250.905 142.543 259.823 143.407 269 142.96C317.448 140.602 311.284 62.7903 263 64.5941z"/>
<path style="fill:#fffc02; stroke:none;" d="M108 65L109 66L108 65M222 65L223 66L222 65M272 65L273 66L272 65M305 65L306 66L305 65M419 65L420 66L419 65M111 69L112 70L111 69M114 72L115 73L114 72M413 72L414 73L413 72M118 75L119 76L118 75M409 75L410 76L409 75M213 78L214 79L213 78M212 80L213 81L212 80z"/>
<path style="fill:#ee683d; stroke:none;" d="M224 103L225 104L224 103z"/>
<path style="fill:#fffc02; stroke:none;" d="M302 112L303 113L302 112z"/>
<path style="fill:#ee683d; stroke:none;" d="M208 114L209 115L208 114z"/>
<path style="fill:#fffc02; stroke:none;" d="M319 114L320 115L319 114M232 127L233 128L232 127z"/>
<path style="fill:#f69d31; stroke:none;" d="M416 128L416 211L432 211L432 128L416 128M448 128L448 211L464 211L464 128L448 128z"/>
<path style="fill:#fffc02; stroke:none;" d="M240 135L241 136L240 135M222 142L223 143L222 142z"/>
<path style="fill:#ee683d; stroke:none;" d="M263 143L264 144L263 143z"/>
<path style="fill:#fffc02; stroke:none;" d="M304 143L305 144L304 143M225 145L226 146L225 145M151 148L152 149L151 148z"/>
<path style="fill:#ee683d; stroke:none;" d="M294 151L295 152L294 151z"/>
<path style="fill:#fffc02; stroke:none;" d="M238 154L239 155L238 154M274 159L275 160L274 159z"/>
<path style="fill:#ee683d; stroke:none;" d="M117 161L118 162L117 161M118 162L119 163L118 162M81 173L82 174L81 173M82 174L83 175L82 174z"/>
<path style="fill:#fffc02; stroke:none;" d="M29 178L30 179L29 178M114 178L115 179L114 178z"/>
<path style="fill:#ee683d; stroke:none;" d="M30 179L31 180L30 179M113 179L114 180L113 179M53 180L54 181L53 180M90 180L91 181L90 180z"/>
<path style="fill:#fffc02; stroke:none;" d="M54 181L55 182L54 181M89 181L90 182L89 181z"/>
<path style="fill:#fff; stroke:none;" d="M151 183C139.745 207.078 123.267 227.18 118.261 254C113.955 277.067 118.368 299.963 120.834 323C124.166 354.119 128 384.667 128 416L224 416C225.817 405.929 234.098 397.001 238.742 388C244.83 376.198 247.073 364.149 247.91 351C249.433 327.07 232.602 308.462 232.015 286C231.64 271.688 232 257.318 232 243C232 236.029 232.451 227.764 227.606 222.105C218.299 211.234 202.97 218.561 200.619 231C195.829 256.339 200 286.199 200 312L184 312L184 304C176.592 304 161.355 306.888 155.228 302.258C148.616 297.261 152 278.469 152 271L152 210C152 201.993 154.105 190.4 151 183z"/>
<path style="fill:#fffc02; stroke:none;" d="M34 184L35 185L34 184M109 184L110 185L109 184z"/>
<path style="fill:#ee683d; stroke:none;" d="M150 184L151 185L150 184M35 185L36 186L35 185M108 185L109 186L108 185M58 186L59 187L58 186M85 186L86 187L85 186z"/>
<path style="fill:#fffc02; stroke:none;" d="M149 186L150 187L149 186M59 187L60 188L59 187M84 187L85 188L84 187z"/>
<path style="fill:#ee683d; stroke:none;" d="M128 188L129 189L128 188z"/>
<path style="fill:#fffc02; stroke:none;" d="M39 190L40 191L39 190M104 190L105 191L104 190z"/>
<path style="fill:#ee683d; stroke:none;" d="M40 191L41 192L40 191M103 191L104 192L103 191M63 192L64 193L63 192M80 192L81 193L80 192z"/>
<path style="fill:#fffc02; stroke:none;" d="M64 193L65 194L64 193M79 193L80 194L79 193M125 193L126 194L125 193M44 196L45 197L44 196M99 196L100 197L99 196z"/>
<path style="fill:#ee683d; stroke:none;" d="M45 197L46 198L45 197M67 197L68 198L67 197M98 197L99 198L98 197M68 198L69 199L68 198M97 198L98 199L97 198z"/>
<path style="fill:#fffc02; stroke:none;" d="M69 199L70 200L69 199M74 199L75 200L74 199z"/>
<path style="fill:#f69d31; stroke:none;" d="M192 211L241 211C229.621 197.9 202.144 193.978 192 211z"/>
<path style="fill:#fffc02; stroke:none;" d="M227 201L228 202L227 201M49 202L50 203L49 202M94 202L95 203L94 202z"/>
<path style="fill:#ee683d; stroke:none;" d="M229 202L230 203L229 202M231 203L232 204L231 203M92 204L93 205L92 204M118 206L119 207L118 206M196 206L197 207L196 206M235 206L236 207L235 206M237 207L238 208L237 207z"/>
<path style="fill:#fffc02; stroke:none;" d="M54 208L55 209L54 208M89 208L90 209L89 208z"/>
<path style="fill:#ee683d; stroke:none;" d="M136 208L137 209L136 208M193 208L194 209L193 208M55 209L56 210L55 209M88 209L89 210L88 209M239 209L240 210L239 209M87 210L88 211L87 210M116 210C106.709 230.536 100.633 249.331 99.0895 272C98.1537 285.743 101.372 300.342 102.834 314C106.46 347.872 112 381.909 112 416C107.719 416 100.864 414.764 97.7423 418.434C94.6255 422.097 96 429.54 96 434L96 473C96 481.749 92.8467 495.603 105 495.985C139.923 497.082 175.058 496 210 496C220.786 496 242.452 500.169 251.941 494.972C258.578 491.337 256 478.323 256 472L256 434C256 429.54 257.374 422.097 254.258 418.434C251.441 415.122 245.869 416 242 416C266.852 381.792 269.244 343.148 256 304L344 304C350.892 304 369.435 307.236 374.258 301.566C378.499 296.581 376 283.207 376 277L376 211L360 211L360 216C323.391 218.711 289.609 250.624 288 288L261 288C257.897 288 253.139 288.834 250.434 286.972C245.842 283.812 248 271.853 248 267C248 252.778 253.4 224.374 242.443 213.318C239.284 210.131 234.09 211 230 211L201 211C196.692 211 191.027 209.914 190 215L186 220C179.82 217.477 169.304 218.988 168 211L152 211L152 279C152 284.81 149.541 298.096 154.434 302.258C160.105 307.082 176.839 304 184 304L184 312L200 312C200 286.715 197.646 260.15 200.171 235C201.098 225.756 207.416 214.745 218.325 216.993C229.154 219.224 231.954 230.533 231.999 240C232.078 256.341 228.927 276.058 232.529 292C236.881 311.261 246.754 326.621 247.907 347C248.723 361.436 244.506 376.429 237.691 389C233.098 397.474 225.009 406.206 224 416L128 416C128 384.318 124.203 353.466 120.834 322C119.138 306.153 115.024 288.931 116.09 273C117.64 249.814 127.791 232.553 134 211L116 210z"/>
<path style="fill:#fffc02; stroke:none;" d="M191 210L192 211L191 210z"/>
<path style="fill:#ee683d; stroke:none;" d="M58 211C60.7777 217.911 68.3923 227.492 76.8302 222.821C81.3308 220.33 82.9418 214.935 87 212L58 211z"/>
<path style="fill:#f69d31; stroke:none;" d="M115 211L116 212L115 211z"/>
<path style="fill:#ee683d; stroke:none;" d="M416 211L416 272C410.326 272 399.011 269.849 394.434 273.742C390.577 277.023 391.927 283.385 394.394 287C401.14 296.882 409.932 305.803 417.586 315C422.885 321.367 430.758 335.912 440 335.912C449.242 335.912 457.115 321.367 462.414 315C470.068 305.803 478.86 296.882 485.606 287C488.073 283.385 489.423 277.023 485.566 273.742C480.989 269.849 469.674 272 464 272L464 211L448 211L448 264C448 269.721 446.099 279.735 449.179 284.772C451.735 288.951 457.829 288 462 288L446.753 306L440 311.944L433.247 306L418 288C422.171 288 428.265 288.951 430.821 284.772C433.901 279.735 432 269.721 432 264L432 211L416 211z"/>
<path style="fill:#f69d31; stroke:none;" d="M85 212L86 213L85 212z"/>
<path style="fill:#fffc02; stroke:none;" d="M134 212L135 213L134 212z"/>
<path style="fill:#f69d31; stroke:none;" d="M84 213L83 215L84 213M114 213L115 214L114 213M133 213L134 214L133 213z"/>
<path style="fill:#fffc02; stroke:none;" d="M59 214L60 215L59 214M84 214L85 215L84 214z"/>
<path style="fill:#f69d31; stroke:none;" d="M189 214L190 215L189 214M243 214L244 215L243 214M132 215L133 216L132 215M61 216L62 217L61 216M170.667 216.333L171.333 216.667L170.667 216.333M214 216L215 217L214 216M216 216L217 217L216 216M356 216L357 217L356 216M62 217L63 218L62 217M112 217L113 218L112 217M131 217L132 218L131 217M176.667 217.333L177.333 217.667L176.667 217.333M210 217L211 218L210 217M221 217L222 218L221 217M350 217L351 218L350 217M180 218L181 219L180 218M245 218L246 219L245 218M346 218L347 219L346 218M111 219L112 220L111 219M130 219L131 220L130 219M206 219L207 220L206 219z"/>
<path style="fill:#ff0303; stroke:none;" d="M64 220L65 221L64 220M79 220L80 221L79 220z"/>
<path style="fill:#f69d31; stroke:none;" d="M246 220L247 221L246 220z"/>
<path style="fill:#ff0303; stroke:none;" d="M129 221L130 222L129 221M128 223L129 224L128 223z"/>
<path style="fill:#f69d31; stroke:none;" d="M127 225L128 226L127 225z"/>
<path style="fill:#ff0303; stroke:none;" d="M322 229L323 230L322 229z"/>
<path style="fill:#f69d31; stroke:none;" d="M124 232L125 233L124 232z"/>
<path style="fill:#fff; stroke:none;" d="M168 233L168 288L184 288L184 237L168 233M305 288L360 288L360 233C330.34 238.752 310.752 258.34 305 288z"/>
<path style="fill:#ff0303; stroke:none;" d="M181 236L182 237L181 236M311 238L312 239L311 238z"/>
<path style="fill:#f69d31; stroke:none;" d="M341 238L342 239L341 238z"/>
<path style="fill:#ff0303; stroke:none;" d="M310 239L311 240L310 239M301 250L302 251L301 250z"/>
<path style="fill:#f69d31; stroke:none;" d="M100 257L101 258L100 257z"/>
<path style="fill:#ff0303; stroke:none;" d="M99 268L100 269L99 268z"/>
<path style="fill:#f69d31; stroke:none;" d="M310 269L311 270L310 269M99 281L100 282L99 281z"/>
<path style="fill:#ff0303; stroke:none;" d="M397 290L398 291L397 290M482 290L483 291L482 290M422 293L423 294L422 293M457 293L458 294L457 293M402 296L403 297L402 296M477 296L478 297L477 296M427 299L428 300L427 299M452 299L453 300L452 299M101 302L102 303L101 302M236 302L237 303L236 302M407 302L408 303L407 302M472 302L473 303L472 302M432 305L433 306L432 305M447 305L448 306L447 305M238 307L239 308L238 307M412 308L413 309L412 308M467 308L468 309L467 308M102 311L103 312L102 311M437 311L438 312L437 311M442 311L443 312L442 311M240 312L241 313L240 312M417 314L418 315L417 314M462 314L463 315L462 314z"/>
<path style="fill:#f69d31; stroke:none;" d="M242 317L243 318L242 317z"/>
<path style="fill:#ff0303; stroke:none;" d="M103 320L104 321L103 320z"/>
<path style="fill:#f69d31; stroke:none;" d="M261 320L262 321L261 320z"/>
<path style="fill:#ff0303; stroke:none;" d="M422 320L423 321L422 320M457 320L458 321L457 320M427 326L428 327L427 326M452 326L453 327L452 326M104 329L105 330L104 329M432 332L433 333L432 332M447 332L448 333L447 332M105 338L106 339L105 338M247 343L248 344L247 343M106 347L107 348L106 347z"/>
<path style="fill:#f69d31; stroke:none;" d="M107 356L108 357L107 356M108 365L109 366L108 365M109 374L110 375L109 374z"/>
<path style="fill:#ff0303; stroke:none;" d="M259 383L260 384L259 383z"/>
<path style="fill:#fff; stroke:none;" d="M112 432L112 480L240 480L240 432L112 432z"/>
<path style="fill:#ff0303; stroke:none;" d="M254 493L255 494L254 493M253 494L254 495L253 494z"/>
</svg>
